<?xml version="1.0" encoding="UTF-8" standalone="no"?>
<svg xmlns="http://www.w3.org/2000/svg" version="1.1" viewBox="0 0 512 512">
<defs>
  <filter id="rimBevel" x="-5%" y="-5%" width="110%" height="110%">
    <feMorphology in="SourceAlpha" operator="erode" radius="1.5" result="interior"/>
    <feComposite in="SourceAlpha" in2="interior" operator="out" result="ring"/>
    <feOffset in="ring" dx="-1.0" dy="-1.0" result="ringShifted"/>
    <feGaussianBlur in="ringShifted" stdDeviation="1.0" result="ringBlur"/>
    <feComposite in="ringBlur" in2="SourceAlpha" operator="in" result="highlight"/>
    <feFlood flood-color="#ffffff" flood-opacity="0.75" result="white"/>
    <feComposite in="white" in2="highlight" operator="in"/>
  </filter>
</defs>
<g filter="url(#rimBevel)">
<!-- silhouette C -->
<g transform="translate(-129.528,-224.711) scale(1.7681)">
<path fill="#000" d="
  M 197.21 159.67
  L 200.14 162.99
  Q 208.28 173.36 210.72 186.04
  Q 210.80 186.28 210.85 186.30
  Q 209.45 188.04 209.04 190.28
  A 0.21 0.21 0.0 0 1 208.65 190.35
  C 206.98 187.29 206.46 184.26 205.44 179.21
  A 12.63 12.42 -68.0 0 0 203.61 174.80
  Q 201.02 170.91 197.06 164.75
  Q 193.51 159.22 187.82 156.95
  C 181.20 154.30 174.90 150.36 166.87 149.75
  Q 153.19 148.72 153.09 148.72
  Q 141.08 148.27 130.26 151.05
  C 126.18 152.10 121.59 154.32 117.38 155.65
  A 1.06 1.05 61.8 0 1 116.22 155.29
  Q 115.55 154.43 115.25 153.16
  Q 120.00 149.99 125.56 148.07
  Q 150.27 140.97 173.30 146.45
  Q 186.10 149.49 197.21 159.67
  Z"
/>
<path fill="#000" d="
  M 210.85 186.30
  L 212.55 199.02
  L 213.23 213.55
  Q 212.88 215.59 212.38 216.06
  Q 195.79 214.76 181.09 215.25
  Q 174.59 215.46 166.84 216.66
  C 166.41 207.34 167.82 192.12 159.78 185.34
  L 159.39 181.11
  A 0.61 0.61 0.0 0 0 158.92 180.57
  Q 147.69 177.88 140.82 185.78
  A 2.94 2.85 74.4 0 0 140.22 186.88
  C 138.44 193.16 134.65 198.52 134.29 205.22
  C 133.70 216.24 134.18 224.70 128.01 232.63
  A 0.91 0.90 28.5 0 1 126.99 232.93
  L 118.30 229.77
  A 1.40 1.39 -79.5 0 1 117.38 228.43
  Q 117.62 211.15 117.68 203.25
  C 117.74 195.81 118.14 192.67 124.30 187.00
  Q 135.93 176.29 136.98 175.43
  A 1.56 1.51 22.8 0 1 137.86 175.09
  Q 138.84 175.03 154.84 175.01
  Q 158.86 175.00 162.04 173.26
  Q 163.86 173.11 164.34 171.87
  A 1.39 1.39 0.0 0 0 163.21 169.99
  Q 160.68 169.68 157.46 169.89
  L 152.41 169.72
  A 0.66 0.64 84.3 0 1 151.79 169.20
  Q 151.21 166.43 149.69 163.94
  Q 160.49 163.92 171.25 163.96
  Q 174.16 163.97 175.29 164.51
  A 3.00 2.97 -9.0 0 1 176.14 165.12
  L 183.93 172.92
  A 3.93 3.83 9.6 0 1 184.58 173.81
  Q 185.35 175.13 185.38 177.68
  Q 185.56 193.35 185.37 195.24
  A 1.05 1.03 -12.6 0 1 184.85 196.04
  C 181.08 198.23 178.70 201.00 179.99 205.78
  C 181.95 213.00 193.74 212.09 194.00 204.02
  Q 194.18 198.73 188.98 196.25
  A 0.75 0.74 -77.5 0 1 188.57 195.60
  L 188.19 172.14
  Q 185.42 168.19 183.37 166.12
  Q 180.48 163.21 177.44 160.44
  A 3.90 3.61 78.2 0 0 176.68 159.90
  Q 172.26 157.56 166.98 157.55
  Q 145.27 157.50 130.33 157.26
  C 127.03 157.21 122.21 159.35 118.37 159.92
  Q 114.18 160.55 112.72 160.99
  C 107.85 162.48 104.83 166.75 102.25 171.34
  Q 101.12 173.35 99.86 174.24
  Q 98.07 175.50 96.30 174.47
  Q 102.31 161.22 115.25 153.16
  Q 115.55 154.43 116.22 155.29
  A 1.06 1.05 61.8 0 0 117.38 155.65
  C 121.59 154.32 126.18 152.10 130.26 151.05
  Q 141.08 148.27 153.09 148.72
  Q 153.19 148.72 166.87 149.75
  C 174.90 150.36 181.20 154.30 187.82 156.95
  Q 193.51 159.22 197.06 164.75
  Q 201.02 170.91 203.61 174.80
  A 12.63 12.42 -68.0 0 1 205.44 179.21
  C 206.46 184.26 206.98 187.29 208.65 190.35
  A 0.21 0.21 0.0 0 0 209.04 190.28
  Q 209.45 188.04 210.85 186.30
  Z"
/>
<path fill="#000" d="
  M 188.19 172.14
  Q 181.44 166.79 177.26 161.77
  A 2.38 2.37 -19.7 0 0 175.43 160.91
  L 129.13 160.91
  A 2.80 2.77 -67.3 0 0 127.16 161.73
  L 114.27 174.61
  A 0.90 0.87 -68.4 0 1 113.70 174.87
  C 109.47 175.08 106.41 175.94 107.11 181.18
  C 107.63 185.12 112.87 184.90 115.36 183.14
  A 1.09 1.04 -16.7 0 0 115.81 182.34
  L 116.11 178.44
  A 3.92 3.70 57.4 0 1 116.29 177.49
  Q 116.51 177.06 118.52 175.01
  Q 123.50 169.94 128.26 165.28
  A 4.86 4.84 22.9 0 1 131.64 163.91
  L 149.69 163.94
  Q 151.21 166.43 151.79 169.20
  A 0.66 0.64 84.3 0 0 152.41 169.72
  L 157.46 169.89
  L 135.53 170.13
  A 2.89 2.86 22.1 0 0 133.52 170.97
  L 114.10 190.39
  A 4.28 4.27 -22.6 0 0 112.86 193.40
  L 112.82 231.41
  Q 99.85 236.35 105.19 247.91
  Q 104.66 254.01 103.79 259.93
  Q 102.83 266.46 98.29 269.23
  Q 95.15 271.14 88.81 272.00
  L 88.57 269.07
  L 87.97 256.24
  L 87.83 245.00
  L 87.97 232.80
  L 88.23 222.80
  L 89.88 198.98
  L 91.84 187.77
  L 96.30 174.47
  Q 98.07 175.50 99.86 174.24
  Q 101.12 173.35 102.25 171.34
  C 104.83 166.75 107.85 162.48 112.72 160.99
  Q 114.18 160.55 118.37 159.92
  C 122.21 159.35 127.03 157.21 130.33 157.26
  Q 145.27 157.50 166.98 157.55
  Q 172.26 157.56 176.68 159.90
  A 3.90 3.61 78.2 0 1 177.44 160.44
  Q 180.48 163.21 183.37 166.12
  Q 185.42 168.19 188.19 172.14
  Z"
/>
<path fill="#000" d="
  M 188.19 172.14
  L 188.57 195.60
  A 0.75 0.74 -77.5 0 0 188.98 196.25
  Q 194.18 198.73 194.00 204.02
  C 193.74 212.09 181.95 213.00 179.99 205.78
  C 178.70 201.00 181.08 198.23 184.85 196.04
  A 1.05 1.03 -12.6 0 0 185.37 195.24
  Q 185.56 193.35 185.38 177.68
  Q 185.35 175.13 184.58 173.81
  A 3.93 3.83 9.6 0 0 183.93 172.92
  L 176.14 165.12
  A 3.00 2.97 -9.0 0 0 175.29 164.51
  Q 174.16 163.97 171.25 163.96
  Q 160.49 163.92 149.69 163.94
  L 131.64 163.91
  A 4.86 4.84 22.9 0 0 128.26 165.28
  Q 123.50 169.94 118.52 175.01
  Q 116.51 177.06 116.29 177.49
  A 3.92 3.70 57.4 0 0 116.11 178.44
  L 115.81 182.34
  A 1.09 1.04 -16.7 0 1 115.36 183.14
  C 112.87 184.90 107.63 185.12 107.11 181.18
  C 106.41 175.94 109.47 175.08 113.70 174.87
  A 0.90 0.87 -68.4 0 0 114.27 174.61
  L 127.16 161.73
  A 2.80 2.77 -67.3 0 1 129.13 160.91
  L 175.43 160.91
  A 2.38 2.37 -19.7 0 1 177.26 161.77
  Q 181.44 166.79 188.19 172.14
  Z"
/>
<path fill="#000" d="
  M 162.04 173.26
  Q 150.27 173.14 138.50 172.89
  Q 136.17 172.85 134.38 174.64
  Q 119.84 189.25 116.96 192.00
  A 2.85 2.82 -22.2 0 0 116.09 194.04
  L 116.09 230.20
  A 1.65 1.64 15.5 0 0 116.89 231.61
  C 123.47 235.52 127.37 241.44 122.29 248.83
  L 120.99 246.78
  C 122.51 239.31 118.13 235.41 112.82 231.41
  L 112.86 193.40
  A 4.28 4.27 -22.6 0 1 114.10 190.39
  L 133.52 170.97
  A 2.89 2.86 22.1 0 1 135.53 170.13
  L 157.46 169.89
  Q 160.68 169.68 163.21 169.99
  A 1.39 1.39 0.0 0 1 164.34 171.87
  Q 163.86 173.11 162.04 173.26
  Z"
/>
<path fill="#000" d="
  M 162.04 173.26
  Q 158.86 175.00 154.84 175.01
  Q 138.84 175.03 137.86 175.09
  A 1.56 1.51 22.8 0 0 136.98 175.43
  Q 135.93 176.29 124.30 187.00
  C 118.14 192.67 117.74 195.81 117.68 203.25
  Q 117.62 211.15 117.38 228.43
  A 1.40 1.39 -79.5 0 0 118.30 229.77
  L 126.99 232.93
  A 0.91 0.90 28.5 0 0 128.01 232.63
  C 134.18 224.70 133.70 216.24 134.29 205.22
  C 134.65 198.52 138.44 193.16 140.22 186.88
  A 2.94 2.85 74.4 0 1 140.82 185.78
  Q 147.69 177.88 158.92 180.57
  A 0.61 0.61 0.0 0 1 159.39 181.11
  L 159.78 185.34
  C 156.07 182.18 147.73 182.29 144.02 185.42
  Q 139.81 189.84 138.46 196.93
  Q 137.56 202.91 137.43 209.39
  Q 137.00 231.04 137.21 252.71
  L 137.08 235.97
  A 0.42 0.42 0.0 0 0 136.26 235.82
  Q 134.43 240.66 134.28 246.77
  C 134.10 254.01 130.02 264.55 120.48 256.93
  Q 119.66 251.46 122.29 248.83
  C 127.37 241.44 123.47 235.52 116.89 231.61
  A 1.65 1.64 15.5 0 1 116.09 230.20
  L 116.09 194.04
  A 2.85 2.82 -22.2 0 1 116.96 192.00
  Q 119.84 189.25 134.38 174.64
  Q 136.17 172.85 138.50 172.89
  Q 150.27 173.14 162.04 173.26
  Z"
/>
<path fill="#000" d="
  M 212.38 216.06
  Q 208.32 217.79 202.92 217.61
  Q 188.03 218.33 173.06 219.39
  C 170.45 219.57 167.24 220.27 166.84 216.66
  Q 174.59 215.46 181.09 215.25
  Q 195.79 214.76 212.38 216.06
  Z"
/>
<path fill="#000" d="
  M 112.82 231.41
  C 118.13 235.41 122.51 239.31 120.99 246.78
  C 117.37 250.18 112.51 250.75 107.58 251.08
  L 105.19 247.91
  Q 99.85 236.35 112.82 231.41
  Z"
/>
<path fill="#000" d="
  M 137.21 252.71
  Q 136.96 270.95 137.66 280.81
  Q 138.29 289.67 141.60 295.86
  Q 144.12 300.58 150.76 300.90
  Q 153.95 301.16 156.68 300.44
  C 163.02 298.78 165.44 292.80 166.00 286.75
  Q 166.92 276.67 166.85 266.52
  Q 166.95 264.98 167.71 263.88
  A 0.99 0.96 16.1 0 1 168.50 263.46
  L 174.16 263.37
  L 192.03 264.42
  L 197.36 264.87
  L 209.25 265.60
  Q 211.61 265.62 213.65 266.96
  L 213.57 277.53
  L 213.39 280.49
  Q 211.74 278.91 210.29 280.71
  C 208.68 282.71 208.68 290.55 208.60 292.92
  A 0.63 0.62 -83.9 0 1 207.87 293.51
  Q 202.13 292.56 197.78 291.97
  Q 193.27 291.36 192.43 295.01
  Q 191.60 291.01 192.36 288.11
  A 1.18 1.15 -5.2 0 1 193.01 287.35
  C 196.15 285.96 198.66 283.34 198.81 279.65
  Q 199.11 271.83 191.53 270.41
  Q 187.06 269.57 183.84 273.26
  Q 182.17 275.21 181.97 277.95
  Q 181.44 285.15 188.64 287.63
  L 188.45 294.75
  A 2.55 2.54 68.3 0 1 187.72 296.46
  L 170.92 313.26
  A 1.33 1.33 0.0 0 1 169.98 313.65
  L 141.00 313.65
  A 2.32 2.31 -22.0 0 1 139.34 312.95
  L 121.57 294.82
  A 4.12 4.11 -67.1 0 1 120.39 291.91
  L 120.48 256.93
  C 130.02 264.55 134.10 254.01 134.28 246.77
  Q 134.43 240.66 136.26 235.82
  A 0.42 0.42 0.0 0 1 137.08 235.97
  L 137.21 252.71
  Z"
/>
<path fill="#000" d="
  M 120.99 246.78
  L 122.29 248.83
  Q 119.66 251.46 120.48 256.93
  L 120.39 291.91
  A 4.12 4.11 -67.1 0 0 121.57 294.82
  L 139.34 312.95
  A 2.32 2.31 -22.0 0 0 141.00 313.65
  L 169.98 313.65
  A 1.33 1.33 0.0 0 0 170.92 313.26
  L 187.72 296.46
  A 2.55 2.54 68.3 0 0 188.45 294.75
  L 188.64 287.63
  Q 192.41 285.48 193.66 282.90
  Q 196.10 277.87 192.88 273.76
  A 2.18 2.16 69.4 0 0 191.05 272.92
  L 183.84 273.26
  Q 187.06 269.57 191.53 270.41
  Q 199.11 271.83 198.81 279.65
  C 198.66 283.34 196.15 285.96 193.01 287.35
  A 1.18 1.15 -5.2 0 0 192.36 288.11
  Q 191.60 291.01 192.43 295.01
  Q 183.75 305.96 171.85 316.73
  L 138.68 316.79
  Q 129.63 307.77 119.96 298.03
  Q 117.93 295.99 116.95 293.91
  A 0.76 0.70 34.6 0 1 116.88 293.60
  L 116.88 252.81
  A 0.12 0.12 0.0 0 0 116.76 252.69
  L 111.17 252.69
  A 0.32 0.32 0.0 0 0 110.85 253.01
  L 110.85 298.08
  A 3.41 3.40 -66.5 0 0 111.76 300.40
  L 125.62 315.26
  A 1.05 1.05 0.0 0 1 125.57 316.74
  L 125.38 316.91
  A 1.81 1.80 -43.1 0 1 122.83 316.83
  Q 116.65 310.24 110.32 304.13
  C 108.76 302.63 107.63 300.81 107.63 298.77
  Q 107.64 274.96 107.58 251.08
  C 112.51 250.75 117.37 250.18 120.99 246.78
  Z"
/>
<path fill="#000" d="
  M 105.19 247.91
  L 107.58 251.08
  Q 107.64 274.96 107.63 298.77
  C 107.63 300.81 108.76 302.63 110.32 304.13
  Q 116.65 310.24 122.83 316.83
  A 1.81 1.80 -43.1 0 0 125.38 316.91
  L 125.57 316.74
  A 1.05 1.05 0.0 0 0 125.62 315.26
  L 111.76 300.40
  A 3.41 3.40 -66.5 0 1 110.85 298.08
  L 110.85 253.01
  A 0.32 0.32 0.0 0 1 111.17 252.69
  L 116.76 252.69
  A 0.12 0.12 0.0 0 1 116.88 252.81
  L 116.88 293.60
  A 0.76 0.70 34.6 0 0 116.95 293.91
  Q 117.93 295.99 119.96 298.03
  Q 129.63 307.77 138.68 316.79
  Q 155.79 317.58 171.85 316.73
  Q 183.75 305.96 192.43 295.01
  Q 193.27 291.36 197.78 291.97
  Q 202.13 292.56 207.87 293.51
  A 0.63 0.62 -83.9 0 0 208.60 292.92
  C 208.68 290.55 208.68 282.71 210.29 280.71
  Q 211.74 278.91 213.39 280.49
  L 212.62 287.98
  Q 212.19 295.57 209.91 302.79
  Q 203.97 322.04 186.54 331.91
  Q 176.87 336.74 166.12 338.45
  L 151.68 339.20
  L 142.97 338.85
  C 136.01 338.16 131.05 336.47 124.98 334.78
  Q 122.63 334.13 116.68 330.91
  C 105.26 324.56 98.28 314.64 94.00 302.48
  L 91.40 292.64
  L 89.25 277.95
  L 88.81 272.00
  Q 95.15 271.14 98.29 269.23
  Q 102.83 266.46 103.79 259.93
  Q 104.66 254.01 105.19 247.91
  Z"
/>
<path fill="#000" d="
  M 188.64 287.63
  Q 181.44 285.15 181.97 277.95
  Q 182.17 275.21 183.84 273.26
  L 191.05 272.92
  A 2.18 2.16 69.4 0 1 192.88 273.76
  Q 196.10 277.87 193.66 282.90
  Q 192.41 285.48 188.64 287.63
  Z"
/>
<path fill="#000" d="
  M 171.85 316.73
  Q 155.79 317.58 138.68 316.79
  L 171.85 316.73
  Z"
/>
</g>
<!-- silhouette H -->
<g transform="translate(-756.137,-230.558) scale(1.7681)">
<path fill="#000" d="
  M 702.68 181.78
  L 702.56 197.87
  L 702.40 215.67
  Q 698.41 205.98 698.92 198.95
  C 699.45 191.51 699.48 183.03 697.20 175.86
  Q 697.62 173.74 696.10 172.40
  Q 692.65 169.35 689.91 172.89
  Q 689.03 174.03 689.47 176.75
  A 1.77 1.75 62.9 0 1 688.99 178.26
  L 678.00 189.46
  Q 675.47 187.68 674.27 184.51
  Q 674.12 173.02 674.10 161.43
  C 674.09 159.17 676.76 158.38 676.90 156.29
  C 677.27 151.12 671.46 150.41 669.54 154.74
  Q 668.64 168.75 669.56 182.92
  Q 669.92 188.51 669.10 194.04
  C 668.20 200.19 663.70 202.76 658.10 204.08
  A 0.58 0.58 0.0 0 1 657.41 203.69
  Q 656.51 200.85 654.65 198.76
  L 654.65 185.52
  Q 654.46 169.43 654.69 153.31
  C 654.75 149.30 654.76 147.64 659.57 147.65
  Q 662.10 147.65 664.55 147.45
  L 677.46 147.37
  Q 688.10 147.57 698.75 147.71
  Q 700.34 147.73 701.62 148.64
  A 1.27 1.26 12.0 0 1 702.13 149.42
  Q 702.63 151.82 702.62 154.25
  Q 702.58 168.03 702.68 181.78
  Z"
/>
<path fill="#000" d="
  M 617.11 147.51
  Q 618.91 147.67 622.24 147.86
  Q 624.83 148.00 624.96 150.63
  Q 625.27 156.80 625.32 163.08
  L 625.30 185.22
  L 624.92 156.33
  A 0.16 0.16 0.0 0 0 624.62 156.26
  C 623.25 158.75 622.56 161.71 622.13 164.39
  A 0.78 0.78 0.0 0 1 620.59 164.34
  L 619.64 153.61
  A 0.80 0.78 6.7 0 0 619.08 152.92
  Q 613.13 151.13 607.94 153.58
  Q 605.85 151.35 603.39 152.33
  C 600.93 153.30 600.40 157.37 602.36 158.84
  Q 603.01 159.32 603.25 159.72
  A 2.79 2.46 32.6 0 1 603.64 161.08
  L 603.71 190.20
  L 603.40 193.39
  A 0.93 0.92 79.3 0 1 602.91 194.12
  Q 599.94 195.67 599.00 196.81
  Q 589.84 207.88 577.31 213.78
  A 0.92 0.90 79.0 0 0 576.80 214.55
  L 576.61 218.29
  L 576.62 207.47
  L 576.63 198.37
  L 576.54 161.30
  L 576.80 151.21
  Q 576.61 147.63 580.36 147.64
  C 583.64 147.65 588.25 147.34 592.21 147.41
  Q 604.10 147.63 617.11 147.51
  Z"
/>
<path fill="#000" d="
  M 625.30 185.22
  L 625.37 215.22
  L 625.38 216.29
  Q 625.29 217.19 625.49 217.94
  A 0.69 0.68 80.7 0 0 626.17 218.44
  L 628.29 218.38
  L 639.81 218.33
  L 653.94 218.35
  A 0.62 0.62 0.0 0 0 654.56 217.73
  L 654.65 198.76
  Q 656.51 200.85 657.41 203.69
  A 0.58 0.58 0.0 0 0 658.10 204.08
  C 663.70 202.76 668.20 200.19 669.10 194.04
  Q 669.92 188.51 669.56 182.92
  Q 668.64 168.75 669.54 154.74
  Q 669.39 158.30 671.85 159.39
  A 1.20 1.18 12.4 0 1 672.55 160.47
  L 672.55 196.99
  A 3.39 3.38 68.4 0 1 671.49 199.45
  L 660.59 209.62
  A 0.40 0.39 43.2 0 0 660.61 210.22
  L 660.94 210.50
  A 0.70 0.69 -46.6 0 0 661.86 210.47
  L 673.25 199.85
  A 2.84 2.81 -21.6 0 0 674.14 197.82
  L 674.27 184.51
  Q 675.47 187.68 678.00 189.46
  Q 677.21 190.67 677.49 191.62
  A 0.21 0.20 59.1 0 0 677.83 191.71
  L 689.79 179.38
  A 1.69 1.67 -69.1 0 1 690.87 178.89
  C 691.60 178.83 692.26 179.52 693.29 179.33
  Q 696.11 178.81 697.20 175.86
  C 699.48 183.03 699.45 191.51 698.92 198.95
  Q 698.41 205.98 702.40 215.67
  L 702.57 259.76
  Q 702.17 259.09 702.22 258.13
  A 1.13 1.10 -59.1 0 0 702.07 257.50
  L 694.66 244.66
  A 1.30 1.28 72.5 0 0 693.45 244.02
  Q 691.51 244.17 690.28 243.56
  Q 691.82 243.97 693.44 243.77
  A 1.04 1.02 -81.1 0 0 694.25 243.17
  C 695.37 240.66 694.96 238.40 691.70 238.44
  A 1.75 1.67 30.4 0 0 691.02 238.60
  L 689.07 239.53
  A 3.69 3.57 -57.0 0 1 687.50 239.89
  L 676.79 239.90
  L 684.64 239.91
  A 0.11 0.10 -86.8 0 0 684.74 239.81
  L 684.77 239.49
  A 0.33 0.33 0.0 0 0 684.53 239.15
  L 665.51 233.87
  Q 666.29 233.76 666.85 233.32
  L 682.37 219.09
  A 2.29 2.27 -21.4 0 0 683.11 217.41
  L 683.11 207.25
  A 3.28 3.24 -21.7 0 1 684.15 204.87
  L 690.12 199.30
  A 0.88 0.87 31.7 0 1 690.98 199.10
  C 699.97 201.94 698.95 190.05 692.82 191.47
  C 688.63 192.45 690.55 195.18 689.45 197.28
  A 2.96 2.71 84.1 0 1 688.96 197.94
  L 682.48 204.29
  A 3.68 3.63 68.2 0 0 681.38 206.91
  L 681.38 216.09
  A 4.25 4.23 69.1 0 1 679.98 219.24
  L 667.91 230.19
  Q 662.56 228.43 658.51 225.00
  Q 661.80 224.40 662.20 220.85
  A 0.11 0.11 0.0 0 0 661.99 220.80
  Q 660.78 224.57 656.93 224.41
  Q 644.71 223.93 623.07 224.24
  A 0.28 0.28 0.0 0 0 623.01 224.80
  L 623.71 224.97
  L 616.82 224.97
  Q 613.72 223.18 609.59 224.07
  Q 608.78 224.25 609.29 225.06
  C 607.39 224.50 606.12 226.58 605.53 228.01
  L 605.61 160.98
  A 2.14 2.09 65.7 0 1 606.09 159.66
  L 607.76 157.63
  A 2.15 2.15 0.0 0 0 608.24 156.53
  Q 608.43 155.11 607.94 153.58
  Q 613.13 151.13 619.08 152.92
  A 0.80 0.78 6.7 0 1 619.64 153.61
  L 620.59 164.34
  A 0.78 0.78 0.0 0 0 622.13 164.39
  C 622.56 161.71 623.25 158.75 624.62 156.26
  A 0.16 0.16 0.0 0 1 624.92 156.33
  L 625.30 185.22
  Z
  M 662.85 217.16
  Q 671.51 209.33 674.95 206.20
  Q 676.38 204.90 678.19 201.37
  A 0.19 0.19 0.0 0 0 678.12 201.12
  L 677.83 200.92
  A 0.31 0.30 28.1 0 0 677.38 201.05
  Q 676.37 203.39 675.50 204.27
  Q 674.66 205.11 662.34 216.70
  A 0.09 0.09 0.0 0 0 662.34 216.83
  L 662.66 217.16
  A 0.14 0.13 -43.4 0 0 662.85 217.16
  Z"
/>
<path fill="#000" d="
  M 607.94 153.58
  Q 608.43 155.11 608.24 156.53
  A 2.15 2.15 0.0 0 1 607.76 157.63
  L 606.09 159.66
  A 2.14 2.09 65.7 0 0 605.61 160.98
  L 605.53 228.01
  L 581.26 250.07
  Q 581.70 248.20 584.05 246.05
  Q 592.92 237.91 601.91 229.93
  Q 603.72 228.31 603.77 226.76
  Q 604.02 217.68 603.71 190.20
  L 603.64 161.08
  A 2.79 2.46 32.6 0 0 603.25 159.72
  Q 603.01 159.32 602.36 158.84
  C 600.40 157.37 600.93 153.30 603.39 152.33
  Q 605.85 151.35 607.94 153.58
  Z"
/>
<path fill="#000" d="
  M 674.27 184.51
  L 674.14 197.82
  A 2.84 2.81 -21.6 0 1 673.25 199.85
  L 661.86 210.47
  A 0.70 0.69 -46.6 0 1 660.94 210.50
  L 660.61 210.22
  A 0.40 0.39 43.2 0 1 660.59 209.62
  L 671.49 199.45
  A 3.39 3.38 68.4 0 0 672.55 196.99
  L 672.55 160.47
  A 1.20 1.18 12.4 0 0 671.85 159.39
  Q 669.39 158.30 669.54 154.74
  C 671.46 150.41 677.27 151.12 676.90 156.29
  C 676.76 158.38 674.09 159.17 674.10 161.43
  Q 674.12 173.02 674.27 184.51
  Z"
/>
<path fill="#000" d="
  M 697.20 175.86
  Q 696.11 178.81 693.29 179.33
  C 692.26 179.52 691.60 178.83 690.87 178.89
  A 1.69 1.67 -69.1 0 0 689.79 179.38
  L 677.83 191.71
  A 0.21 0.20 59.1 0 1 677.49 191.62
  Q 677.21 190.67 678.00 189.46
  L 688.99 178.26
  A 1.77 1.75 62.9 0 0 689.47 176.75
  Q 689.03 174.03 689.91 172.89
  Q 692.65 169.35 696.10 172.40
  Q 697.62 173.74 697.20 175.86
  Z"
/>
<path fill="#000" d="
  M 603.71 190.20
  Q 604.02 217.68 603.77 226.76
  Q 603.72 228.31 601.91 229.93
  Q 592.92 237.91 584.05 246.05
  Q 581.70 248.20 581.26 250.07
  Q 578.08 250.07 576.75 248.79
  L 576.63 244.47
  L 576.58 233.17
  L 576.63 222.23
  L 576.61 218.29
  L 576.80 214.55
  A 0.92 0.90 79.0 0 1 577.31 213.78
  Q 589.84 207.88 599.00 196.81
  Q 599.94 195.67 602.91 194.12
  A 0.93 0.92 79.3 0 0 603.40 193.39
  L 603.71 190.20
  Z"
/>
<path fill="#000" d="
  M 666.85 233.32
  Q 666.07 232.43 666.22 231.52
  L 667.91 230.19
  L 679.98 219.24
  A 4.25 4.23 69.1 0 0 681.38 216.09
  L 681.38 206.91
  A 3.68 3.63 68.2 0 1 682.48 204.29
  L 688.96 197.94
  A 2.96 2.71 84.1 0 0 689.45 197.28
  C 690.55 195.18 688.63 192.45 692.82 191.47
  C 698.95 190.05 699.97 201.94 690.98 199.10
  A 0.88 0.87 31.7 0 0 690.12 199.30
  L 684.15 204.87
  A 3.28 3.24 -21.7 0 0 683.11 207.25
  L 683.11 217.41
  A 2.29 2.27 -21.4 0 1 682.37 219.09
  L 666.85 233.32
  Z"
/>
<path fill="#000" d="
  M 662.85 217.16
  A 0.14 0.13 -43.4 0 1 662.66 217.16
  L 662.34 216.83
  A 0.09 0.09 0.0 0 1 662.34 216.70
  Q 674.66 205.11 675.50 204.27
  Q 676.37 203.39 677.38 201.05
  A 0.31 0.30 28.1 0 1 677.83 200.92
  L 678.12 201.12
  A 0.19 0.19 0.0 0 1 678.19 201.37
  Q 676.38 204.90 674.95 206.20
  Q 671.51 209.33 662.85 217.16
  Z"
/>
<path fill="#000" d="
  M 658.51 225.00
  L 623.71 224.97
  L 623.01 224.80
  A 0.28 0.28 0.0 0 1 623.07 224.24
  Q 644.71 223.93 656.93 224.41
  Q 660.78 224.57 661.99 220.80
  A 0.11 0.11 0.0 0 1 662.20 220.85
  Q 661.80 224.40 658.51 225.00
  Z"
/>
<path fill="#000" d="
  M 609.29 225.06
  L 616.82 224.97
  L 623.71 224.97
  L 658.51 225.00
  Q 662.56 228.43 667.91 230.19
  L 666.22 231.52
  Q 664.56 232.07 662.75 232.07
  Q 637.97 232.06 616.53 232.14
  A 3.75 3.75 0.0 0 0 613.97 233.15
  L 580.36 264.51
  A 0.64 0.63 47.2 0 0 580.33 265.41
  L 580.61 265.72
  A 0.70 0.70 0.0 0 0 581.60 265.75
  L 614.78 234.79
  A 2.12 2.12 0.0 0 1 616.20 234.22
  L 665.51 233.87
  L 684.53 239.15
  A 0.33 0.33 0.0 0 1 684.77 239.49
  L 684.74 239.81
  A 0.11 0.10 -86.8 0 1 684.64 239.91
  L 676.79 239.90
  Q 647.70 240.08 625.50 239.75
  Q 623.15 239.71 621.21 240.30
  A 2.17 2.09 -73.8 0 0 620.39 240.77
  L 604.09 256.06
  Q 597.29 259.18 594.78 266.08
  A 3.05 3.03 -35.3 0 0 594.60 267.11
  C 594.43 279.20 593.81 286.89 594.45 297.83
  Q 595.19 310.65 593.93 324.41
  C 593.73 326.66 594.74 328.25 594.08 330.58
  A 0.66 0.66 0.0 0 1 593.52 331.06
  Q 584.74 332.14 576.78 330.33
  L 576.72 325.90
  L 576.72 314.32
  L 576.68 301.96
  L 576.74 292.05
  L 576.74 280.26
  L 576.74 267.27
  L 576.66 254.18
  L 576.75 248.79
  Q 578.08 250.07 581.26 250.07
  L 605.53 228.01
  C 606.12 226.58 607.39 224.50 609.29 225.06
  Z"
/>
<path fill="#000" d="
  M 616.82 224.97
  L 609.29 225.06
  Q 608.78 224.25 609.59 224.07
  Q 613.72 223.18 616.82 224.97
  Z"
/>
<path fill="#000" d="
  M 666.22 231.52
  Q 666.07 232.43 666.85 233.32
  Q 666.29 233.76 665.51 233.87
  L 616.20 234.22
  A 2.12 2.12 0.0 0 0 614.78 234.79
  L 581.60 265.75
  A 0.70 0.70 0.0 0 1 580.61 265.72
  L 580.33 265.41
  A 0.64 0.63 47.2 0 1 580.36 264.51
  L 613.97 233.15
  A 3.75 3.75 0.0 0 1 616.53 232.14
  Q 637.97 232.06 662.75 232.07
  Q 664.56 232.07 666.22 231.52
  Z"
/>
<path fill="#000" d="
  M 690.28 243.56
  Q 689.55 242.02 688.00 241.98
  Q 681.06 241.84 667.19 241.93
  L 623.10 242.25
  A 3.11 3.08 -66.4 0 0 621.03 243.07
  L 603.96 258.96
  L 599.59 263.01
  A 2.42 2.38 69.0 0 0 598.82 264.78
  L 598.82 330.47
  A 0.85 0.84 85.2 0 1 598.12 331.31
  L 597.59 331.41
  A 0.68 0.68 0.0 0 1 596.79 330.74
  L 596.79 264.61
  A 3.85 3.84 -21.7 0 1 598.00 261.81
  L 604.09 256.06
  L 620.39 240.77
  A 2.17 2.09 -73.8 0 1 621.21 240.30
  Q 623.15 239.71 625.50 239.75
  Q 647.70 240.08 676.79 239.90
  L 687.50 239.89
  A 3.69 3.57 -57.0 0 0 689.07 239.53
  L 691.02 238.60
  A 1.75 1.67 30.4 0 1 691.70 238.44
  C 694.96 238.40 695.37 240.66 694.25 243.17
  A 1.04 1.02 -81.1 0 1 693.44 243.77
  Q 691.82 243.97 690.28 243.56
  Z"
/>
<path fill="#000" d="
  M 667.19 241.93
  L 669.48 247.86
  L 645.30 248.11
  A 0.44 0.44 0.0 0 0 644.87 248.53
  L 644.85 248.85
  A 0.54 0.54 0.0 0 0 645.39 249.41
  L 665.46 249.41
  A 1.56 1.55 0.0 0 1 667.02 250.96
  L 667.02 253.51
  A 1.62 1.59 -23.2 0 1 666.56 254.63
  Q 664.66 256.55 665.33 259.72
  Q 661.08 260.81 655.51 260.47
  Q 654.13 260.39 654.06 261.92
  L 639.96 261.99
  L 628.47 261.86
  L 625.30 262.19
  Q 624.75 261.66 624.01 262.03
  A 0.76 0.74 -10.1 0 0 623.60 262.60
  Q 622.52 270.25 622.88 277.68
  A 2.14 2.12 59.8 0 1 622.55 278.95
  Q 616.42 288.79 606.01 293.81
  L 605.99 266.33
  A 3.55 3.54 68.6 0 1 607.13 263.70
  L 620.63 251.10
  A 0.48 0.48 0.0 0 0 620.65 250.42
  L 620.41 250.16
  A 0.49 0.49 0.0 0 0 619.71 250.14
  L 608.03 261.23
  Q 606.45 259.23 603.96 258.96
  L 621.03 243.07
  A 3.11 3.08 -66.4 0 1 623.10 242.25
  L 667.19 241.93
  Z"
/>
<path fill="#000" d="
  M 690.28 243.56
  Q 691.51 244.17 693.45 244.02
  A 1.30 1.28 72.5 0 1 694.66 244.66
  L 702.07 257.50
  A 1.13 1.10 -59.1 0 1 702.22 258.13
  Q 702.17 259.09 702.57 259.76
  L 702.52 278.99
  L 699.77 274.21
  A 1.12 1.12 0.0 0 0 698.05 273.95
  Q 697.14 274.80 696.43 276.55
  Q 693.57 283.56 690.38 289.09
  C 686.66 295.52 683.42 300.39 676.24 301.78
  Q 673.63 299.45 671.17 296.84
  C 670.13 295.75 668.90 294.88 668.89 293.25
  Q 668.83 279.48 668.90 262.25
  Q 668.90 260.38 670.35 259.73
  A 0.89 0.87 -8.5 0 0 670.85 259.07
  Q 671.35 255.90 669.38 254.69
  A 1.19 1.19 0.0 0 1 668.82 253.68
  L 668.82 250.28
  A 0.81 0.81 0.0 0 1 669.63 249.47
  L 687.95 249.45
  A 2.72 2.71 -32.2 0 1 689.11 249.71
  C 690.04 250.13 690.28 250.87 691.59 251.04
  Q 692.66 251.18 693.88 250.78
  A 1.03 1.02 -1.2 0 0 694.54 250.10
  Q 695.20 247.80 694.04 246.65
  A 2.55 2.54 -51.2 0 0 690.13 247.08
  Q 689.87 247.48 689.35 247.74
  A 1.53 1.46 -57.0 0 1 688.68 247.90
  L 669.48 247.86
  L 667.19 241.93
  Q 681.06 241.84 688.00 241.98
  Q 689.55 242.02 690.28 243.56
  Z"
/>
<path fill="#000" d="
  M 676.24 301.78
  L 681.22 306.63
  L 680.01 308.39
  L 667.56 295.98
  A 2.35 2.34 22.4 0 1 666.86 294.31
  Q 666.91 277.70 666.87 261.00
  Q 666.87 259.96 665.33 259.72
  Q 664.66 256.55 666.56 254.63
  A 1.62 1.59 -23.2 0 0 667.02 253.51
  L 667.02 250.96
  A 1.56 1.55 0.0 0 0 665.46 249.41
  L 645.39 249.41
  A 0.54 0.54 0.0 0 1 644.85 248.85
  L 644.87 248.53
  A 0.44 0.44 0.0 0 1 645.30 248.11
  L 669.48 247.86
  L 688.68 247.90
  A 1.53 1.46 -57.0 0 0 689.35 247.74
  Q 689.87 247.48 690.13 247.08
  A 2.55 2.54 -51.2 0 1 694.04 246.65
  Q 695.20 247.80 694.54 250.10
  A 1.03 1.02 -1.2 0 1 693.88 250.78
  Q 692.66 251.18 691.59 251.04
  C 690.28 250.87 690.04 250.13 689.11 249.71
  A 2.72 2.71 -32.2 0 0 687.95 249.45
  L 669.63 249.47
  A 0.81 0.81 0.0 0 0 668.82 250.28
  L 668.82 253.68
  A 1.19 1.19 0.0 0 0 669.38 254.69
  Q 671.35 255.90 670.85 259.07
  A 0.89 0.87 -8.5 0 1 670.35 259.73
  Q 668.90 260.38 668.90 262.25
  Q 668.83 279.48 668.89 293.25
  C 668.90 294.88 670.13 295.75 671.17 296.84
  Q 673.63 299.45 676.24 301.78
  Z"
/>
<path fill="#000" d="
  M 606.01 293.81
  L 605.71 331.02
  A 0.50 0.49 -84.5 0 1 605.13 331.50
  L 604.79 331.44
  A 0.44 0.44 0.0 0 1 604.43 331.01
  L 604.43 265.93
  A 1.90 1.89 -24.3 0 1 604.91 264.67
  L 608.03 261.23
  L 619.71 250.14
  A 0.49 0.49 0.0 0 1 620.41 250.16
  L 620.65 250.42
  A 0.48 0.48 0.0 0 1 620.63 251.10
  L 607.13 263.70
  A 3.55 3.54 68.6 0 0 605.99 266.33
  L 606.01 293.81
  Z"
/>
<path fill="#000" d="
  M 604.09 256.06
  L 598.00 261.81
  A 3.85 3.84 -21.7 0 0 596.79 264.61
  L 596.79 330.74
  A 0.68 0.68 0.0 0 0 597.59 331.41
  L 598.12 331.31
  A 0.85 0.84 85.2 0 0 598.82 330.47
  L 598.82 264.78
  A 2.42 2.38 69.0 0 1 599.59 263.01
  L 603.96 258.96
  Q 606.45 259.23 608.03 261.23
  L 604.91 264.67
  A 1.90 1.89 -24.3 0 0 604.43 265.93
  L 604.43 331.01
  A 0.44 0.44 0.0 0 0 604.79 331.44
  L 605.13 331.50
  A 0.50 0.49 -84.5 0 0 605.71 331.02
  L 606.01 293.81
  Q 616.42 288.79 622.55 278.95
  A 2.14 2.12 59.8 0 0 622.88 277.68
  Q 622.52 270.25 623.60 262.60
  A 0.76 0.74 -10.1 0 1 624.01 262.03
  Q 624.75 261.66 625.30 262.19
  L 625.34 284.03
  L 625.09 334.26
  A 1.93 1.92 -0.2 0 1 623.18 336.17
  L 612.11 336.25
  L 609.22 336.16
  L 595.21 336.07
  Q 587.72 336.13 580.25 336.15
  Q 577.33 336.16 576.82 333.71
  Q 576.53 332.29 576.78 330.33
  Q 584.74 332.14 593.52 331.06
  A 0.66 0.66 0.0 0 0 594.08 330.58
  C 594.74 328.25 593.73 326.66 593.93 324.41
  Q 595.19 310.65 594.45 297.83
  C 593.81 286.89 594.43 279.20 594.60 267.11
  A 3.05 3.03 -35.3 0 1 594.78 266.08
  Q 597.29 259.18 604.09 256.06
  Z"
/>
<path fill="#000" d="
  M 665.33 259.72
  Q 666.87 259.96 666.87 261.00
  Q 666.91 277.70 666.86 294.31
  A 2.35 2.34 22.4 0 0 667.56 295.98
  L 680.01 308.39
  L 680.11 312.41
  A 1.41 1.40 -56.0 0 0 680.18 312.78
  C 682.25 318.35 689.17 316.22 688.89 311.04
  C 688.64 306.20 684.07 307.30 681.22 306.63
  L 676.24 301.78
  C 683.42 300.39 686.66 295.52 690.38 289.09
  Q 693.57 283.56 696.43 276.55
  Q 697.14 274.80 698.05 273.95
  A 1.12 1.12 0.0 0 1 699.77 274.21
  L 702.52 278.99
  L 702.44 302.72
  L 702.48 314.56
  L 702.47 325.49
  L 702.59 333.41
  A 2.59 2.58 89.5 0 1 700.02 336.04
  L 657.21 336.18
  Q 654.51 336.19 654.51 332.75
  Q 654.55 297.75 654.51 262.75
  Q 654.51 262.14 654.06 261.92
  Q 654.13 260.39 655.51 260.47
  Q 661.08 260.81 665.33 259.72
  Z"
/>
<path fill="#000" d="
  M 680.01 308.39
  L 681.22 306.63
  C 684.07 307.30 688.64 306.20 688.89 311.04
  C 689.17 316.22 682.25 318.35 680.18 312.78
  A 1.41 1.40 -56.0 0 1 680.11 312.41
  L 680.01 308.39
  Z"
/>
</g>
<!-- silhouette family -->
<g transform="translate(-443.567,61.014) scale(0.9724)">
<path fill="#000" d="
  M 780.82 354.06
  Q 784.25 356.44 784.92 361.11
  Q 785.13 367.11 782.65 373.00
  Q 777.67 386.44 766.34 394.85
  A 0.48 0.47 51.8 0 0 766.26 395.54
  L 770.92 401.11
  A 1.94 1.93 -28.5 0 0 772.96 401.71
  Q 775.66 400.89 777.71 399.08
  Q 778.40 398.47 779.94 394.24
  Q 783.18 385.35 792.68 381.40
  L 802.96 380.34
  Q 807.03 377.86 810.77 380.73
  Q 812.25 381.86 812.64 383.87
  C 810.79 391.81 806.12 402.52 809.66 409.41
  A 1.97 1.96 62.2 0 0 812.34 410.25
  Q 816.87 407.81 817.34 403.72
  Q 819.27 409.01 821.66 411.70
  Q 822.70 412.88 827.12 416.09
  Q 824.89 416.85 820.70 416.77
  Q 816.73 416.69 817.30 412.85
  A 0.31 0.31 0.0 0 0 816.76 412.61
  Q 812.14 417.91 805.09 416.85
  C 801.14 416.26 799.53 414.13 798.67 410.55
  A 0.29 0.29 0.0 0 0 798.14 410.47
  C 796.19 413.85 794.74 416.56 790.36 416.88
  C 786.19 417.18 782.78 416.82 780.52 412.95
  Q 778.19 408.95 778.65 405.09
  A 0.43 0.43 0.0 0 0 778.10 404.62
  Q 774.84 405.60 773.51 407.02
  A 0.94 0.94 0.0 0 0 773.30 407.92
  C 773.75 409.39 774.86 411.49 775.10 413.70
  Q 775.95 421.46 774.26 429.01
  Q 773.57 432.10 770.88 436.18
  Q 767.91 440.69 762.23 440.45
  C 755.00 440.14 753.19 432.90 753.11 427.05
  L 753.03 419.02
  L 753.83 408.26
  L 754.29 401.70
  A 1.29 1.27 -57.3 0 0 754.15 401.04
  L 752.20 397.26
  Q 752.02 392.78 755.64 392.00
  A 0.79 0.78 -88.7 0 0 756.24 391.42
  L 760.27 374.50
  L 762.73 368.28
  L 768.22 359.17
  Q 773.53 352.46 780.82 354.06
  Z
  M 769.00 386.54
  L 776.52 375.14
  A 1.79 1.76 68.5 0 0 776.75 374.60
  Q 777.60 371.13 778.88 367.80
  A 4.58 4.48 59.1 0 0 779.19 366.51
  Q 779.38 364.72 779.00 363.03
  A 0.95 0.95 0.0 0 0 777.43 362.53
  Q 775.88 363.93 774.97 366.00
  Q 770.74 375.58 768.50 386.33
  A 0.28 0.28 0.0 0 0 769.00 386.54
  Z
  M 794.37 409.18
  Q 796.40 405.51 797.12 402.28
  Q 797.78 399.34 798.37 396.52
  L 799.94 386.10
  A 0.88 0.87 88.4 0 0 798.90 385.11
  Q 797.04 385.49 795.33 386.63
  C 791.24 389.33 788.74 398.81 788.88 402.76
  Q 789.24 412.49 794.37 409.18
  Z
  M 764.93 407.28
  Q 764.17 409.44 763.87 412.32
  Q 763.55 415.38 762.54 426.00
  Q 762.23 429.24 763.62 432.33
  A 1.02 1.02 0.0 0 0 765.26 432.64
  Q 767.05 430.89 767.87 427.85
  Q 770.72 417.22 766.21 407.22
  A 0.69 0.69 0.0 0 0 764.93 407.28
  Z"
/>
<path fill="#000" d="
  M 742.54 359.75
  Q 738.67 366.54 736.97 373.51
  L 735.05 380.42
  Q 734.10 385.28 733.07 390.09
  C 731.78 396.08 731.29 401.40 731.91 406.97
  C 732.12 408.90 733.60 412.34 736.27 410.15
  Q 739.32 407.77 741.03 404.40
  A 1.09 1.08 28.8 0 1 742.56 403.96
  Q 743.43 404.49 743.56 405.75
  Q 740.30 414.87 732.17 417.07
  L 727.42 416.71
  A 3.45 3.39 -29.3 0 1 726.17 416.37
  Q 722.47 414.58 721.65 410.23
  A 0.38 0.37 53.7 0 0 720.95 410.12
  C 719.35 413.19 717.45 416.05 714.00 416.71
  Q 705.80 418.29 702.74 411.66
  A 0.55 0.55 0.0 0 0 701.79 411.59
  Q 696.96 418.79 687.64 416.54
  C 684.21 415.72 683.07 412.23 682.44 408.44
  Q 682.94 400.23 684.12 392.02
  Q 684.34 390.45 684.28 390.24
  A 2.06 2.06 0.0 0 0 680.75 389.51
  C 676.98 393.92 675.61 399.62 673.87 406.62
  Q 673.34 408.73 673.54 414.75
  Q 673.57 415.65 672.47 416.34
  C 669.55 417.70 663.93 417.92 663.12 413.59
  A 0.45 0.45 0.0 0 0 662.34 413.38
  Q 659.06 417.17 653.62 417.01
  Q 646.57 416.97 645.00 410.40
  A 0.50 0.50 0.0 0 0 644.02 410.41
  Q 643.03 414.74 638.74 416.42
  Q 626.85 419.18 625.15 407.52
  Q 624.51 401.67 625.57 397.48
  Q 629.01 386.01 638.81 381.55
  Q 640.43 380.81 644.54 380.99
  L 647.23 381.10
  A 1.15 1.12 28.0 0 0 647.95 380.89
  Q 649.97 379.40 652.28 379.40
  C 654.80 379.58 660.01 381.20 659.02 384.50
  Q 657.34 390.12 655.91 395.77
  C 654.88 398.99 652.89 410.15 658.00 410.66
  A 1.49 1.49 0.0 0 0 659.13 410.31
  L 662.37 407.60
  A 1.94 1.91 72.8 0 0 663.05 406.29
  Q 664.08 393.92 667.20 380.05
  A 2.59 2.58 -5.3 0 1 668.70 378.25
  Q 671.04 377.24 674.01 377.70
  C 678.30 378.53 679.47 381.37 677.39 385.04
  Q 676.29 386.98 675.91 389.42
  A 0.30 0.30 0.0 0 0 676.44 389.66
  Q 677.40 388.50 679.02 386.26
  C 681.73 382.51 686.30 380.13 690.72 380.76
  Q 693.49 381.16 694.47 382.55
  Q 696.88 385.99 696.00 390.53
  C 694.37 399.01 692.49 403.93 694.02 409.43
  A 1.81 1.81 0.0 0 0 696.58 410.56
  Q 698.88 409.40 700.19 407.71
  A 2.92 2.84 67.9 0 0 700.78 406.25
  Q 701.07 403.41 701.32 400.94
  Q 702.40 389.96 711.29 383.55
  Q 716.36 379.90 722.58 380.93
  A 0.71 0.71 0.0 0 0 723.39 380.38
  Q 725.57 370.24 728.15 361.64
  C 729.00 358.82 730.24 354.96 733.45 354.40
  Q 741.94 352.93 742.54 359.75
  Z
  M 645.43 385.33
  C 637.24 386.23 633.49 402.55 636.36 408.82
  A 2.26 2.26 0.0 0 0 639.81 409.66
  Q 642.64 407.44 643.64 402.12
  Q 644.18 399.27 646.16 386.09
  A 0.67 0.66 1.3 0 0 645.43 385.33
  Z
  M 713.64 393.29
  C 712.21 398.08 710.93 405.04 713.25 409.64
  A 1.69 1.69 0.0 0 0 715.96 410.07
  C 719.27 406.73 720.72 400.96 721.35 396.43
  L 722.55 386.17
  A 0.42 0.41 -89.4 0 0 722.11 385.71
  C 717.67 386.03 715.41 389.48 713.64 393.29
  Z"
/>
<path fill="#000" d="
  M 918.72 355.56
  Q 920.73 357.88 921.23 361.22
  Q 921.90 366.48 920.11 371.97
  Q 917.61 381.63 910.54 390.28
  Q 907.49 394.01 905.74 394.88
  A 1.06 1.05 80.6 0 0 905.16 395.70
  Q 904.62 400.32 904.84 404.44
  C 905.08 408.83 908.48 413.06 913.03 408.67
  C 917.04 405.74 917.85 400.36 918.32 395.49
  L 920.37 382.22
  A 0.96 0.96 0.0 0 1 920.94 381.48
  C 925.98 379.34 933.16 381.09 931.36 388.26
  C 930.00 393.63 925.49 407.44 929.31 409.91
  C 931.15 411.10 933.01 407.81 933.48 406.47
  Q 937.25 395.45 938.86 382.88
  Q 940.17 380.07 943.02 380.20
  C 946.29 380.29 949.32 380.02 950.63 383.93
  L 947.69 396.03
  L 944.49 411.59
  A 0.24 0.24 0.0 0 0 944.87 411.83
  C 948.52 409.08 952.17 406.97 954.43 402.71
  Q 955.03 402.26 955.48 402.46
  Q 955.89 402.63 956.02 403.39
  Q 956.31 405.11 956.03 405.98
  Q 955.42 407.68 954.85 408.23
  Q 950.62 413.26 944.26 416.79
  Q 943.83 416.96 943.19 417.81
  A 2.01 1.98 -21.9 0 0 942.79 418.73
  C 941.37 427.76 936.17 441.88 925.63 442.68
  C 918.19 443.24 913.75 438.16 915.13 430.73
  Q 916.87 426.20 921.53 422.55
  Q 926.38 419.06 932.28 417.07
  A 0.92 0.90 0.5 0 0 932.85 416.52
  L 934.07 413.18
  A 0.33 0.33 0.0 0 0 933.49 412.87
  C 929.80 417.82 922.07 418.43 918.92 412.79
  Q 918.21 411.52 917.58 410.56
  A 0.51 0.50 46.7 0 0 916.75 410.53
  Q 910.28 419.23 900.34 416.22
  Q 897.26 415.28 895.42 410.57
  A 0.51 0.51 0.0 0 0 894.50 410.50
  Q 893.24 412.67 891.06 414.45
  C 886.06 418.53 877.39 418.51 875.13 411.27
  A 0.49 0.49 0.0 0 0 874.19 411.29
  Q 874.01 411.95 873.28 412.82
  Q 869.15 417.74 862.43 416.76
  C 850.99 416.85 855.10 398.94 856.38 392.67
  Q 856.69 391.16 855.94 389.56
  A 1.23 1.22 -37.8 0 0 853.88 389.30
  Q 850.05 393.97 848.35 399.53
  Q 846.27 406.99 846.41 414.76
  A 1.45 1.45 0.0 0 1 845.45 416.15
  Q 841.56 417.55 837.96 416.24
  A 3.17 3.16 -81.4 0 1 835.88 413.41
  C 835.54 405.92 837.52 396.58 838.39 391.58
  Q 838.52 390.86 838.21 389.72
  A 1.78 1.76 -22.0 0 0 835.64 388.64
  C 832.50 390.36 829.65 397.99 828.71 401.00
  Q 827.51 404.87 827.12 416.09
  Q 822.70 412.88 821.66 411.70
  Q 819.27 409.01 817.34 403.72
  Q 817.24 392.02 820.77 379.75
  A 2.01 2.00 2.6 0 1 822.33 378.33
  L 826.30 377.57
  C 832.35 377.99 832.31 381.61 830.65 385.93
  Q 829.62 388.63 829.48 389.80
  A 0.20 0.20 0.0 0 0 829.85 389.94
  C 830.68 388.72 832.03 386.00 833.38 384.71
  Q 836.95 381.27 840.70 380.67
  C 846.21 379.77 849.94 382.09 849.54 388.17
  A 0.24 0.24 0.0 0 0 849.96 388.34
  C 853.44 384.07 856.30 380.73 862.19 380.41
  Q 867.67 381.09 868.05 386.00
  Q 868.49 391.63 867.20 397.30
  C 866.34 399.77 863.42 412.01 869.50 410.61
  A 0.88 0.81 15.2 0 0 869.91 410.40
  L 873.32 407.22
  A 1.58 1.56 71.8 0 0 873.81 406.23
  Q 874.51 399.48 876.02 390.25
  C 876.38 388.02 877.20 384.87 877.86 383.31
  Q 879.41 379.65 884.27 380.13
  C 886.86 380.13 890.54 381.64 889.35 384.89
  Q 887.28 390.61 886.32 396.54
  C 885.69 399.27 884.18 408.40 886.37 410.35
  A 2.24 2.02 -40.3 0 0 888.98 410.43
  C 894.57 406.70 893.71 401.98 894.05 396.04
  C 894.34 392.87 894.51 389.85 895.28 386.71
  Q 896.70 380.98 897.92 375.19
  Q 898.89 370.61 903.55 361.56
  Q 905.32 357.89 908.45 355.55
  Q 913.80 352.47 918.72 355.56
  Z
  M 905.92 386.94
  A 0.52 0.51 68.8 0 0 906.84 387.35
  Q 913.75 377.52 915.33 365.01
  Q 915.54 363.33 914.98 362.09
  A 0.79 0.79 0.0 0 0 913.64 361.92
  Q 911.63 364.46 910.71 367.69
  Q 908.24 376.43 905.92 386.94
  Z
  M 921.79 434.61
  Q 924.98 437.18 928.70 431.50
  Q 930.65 428.53 932.12 422.26
  Q 932.14 422.14 931.97 422.01
  Q 931.81 421.87 931.70 421.92
  Q 925.87 424.67 923.38 427.20
  Q 918.60 432.03 921.79 434.61
  Z"
/>
<path fill="#000" d="
  M 884.44 376.23
  Q 881.12 375.75 879.66 372.57
  C 878.09 366.22 884.10 363.42 889.58 364.28
  A 2.72 2.65 -24.5 0 1 890.53 364.62
  Q 895.22 367.42 892.96 372.54
  A 2.71 2.61 -11.8 0 1 892.40 373.36
  Q 889.28 376.56 884.44 376.23
  Z"
/>
</g>
</g>
<!-- art C -->
<g transform="translate(-129.528,-224.711) scale(1.7681)">
<path fill="#154e76" d="
  M 197.21 159.67
  L 200.14 162.99
  Q 208.28 173.36 210.72 186.04
  Q 210.80 186.28 210.85 186.30
  Q 209.45 188.04 209.04 190.28
  A 0.21 0.21 0.0 0 1 208.65 190.35
  C 206.98 187.29 206.46 184.26 205.44 179.21
  A 12.63 12.42 -68.0 0 0 203.61 174.80
  Q 201.02 170.91 197.06 164.75
  Q 193.51 159.22 187.82 156.95
  C 181.20 154.30 174.90 150.36 166.87 149.75
  Q 153.19 148.72 153.09 148.72
  Q 141.08 148.27 130.26 151.05
  C 126.18 152.10 121.59 154.32 117.38 155.65
  A 1.06 1.05 61.8 0 1 116.22 155.29
  Q 115.55 154.43 115.25 153.16
  Q 120.00 149.99 125.56 148.07
  Q 150.27 140.97 173.30 146.45
  Q 186.10 149.49 197.21 159.67
  Z"
/>
<path fill="#0c395e" d="
  M 210.85 186.30
  L 212.55 199.02
  L 213.23 213.55
  Q 212.88 215.59 212.38 216.06
  Q 195.79 214.76 181.09 215.25
  Q 174.59 215.46 166.84 216.66
  C 166.41 207.34 167.82 192.12 159.78 185.34
  L 159.39 181.11
  A 0.61 0.61 0.0 0 0 158.92 180.57
  Q 147.69 177.88 140.82 185.78
  A 2.94 2.85 74.4 0 0 140.22 186.88
  C 138.44 193.16 134.65 198.52 134.29 205.22
  C 133.70 216.24 134.18 224.70 128.01 232.63
  A 0.91 0.90 28.5 0 1 126.99 232.93
  L 118.30 229.77
  A 1.40 1.39 -79.5 0 1 117.38 228.43
  Q 117.62 211.15 117.68 203.25
  C 117.74 195.81 118.14 192.67 124.30 187.00
  Q 135.93 176.29 136.98 175.43
  A 1.56 1.51 22.8 0 1 137.86 175.09
  Q 138.84 175.03 154.84 175.01
  Q 158.86 175.00 162.04 173.26
  Q 163.86 173.11 164.34 171.87
  A 1.39 1.39 0.0 0 0 163.21 169.99
  Q 160.68 169.68 157.46 169.89
  L 152.41 169.72
  A 0.66 0.64 84.3 0 1 151.79 169.20
  Q 151.21 166.43 149.69 163.94
  Q 160.49 163.92 171.25 163.96
  Q 174.16 163.97 175.29 164.51
  A 3.00 2.97 -9.0 0 1 176.14 165.12
  L 183.93 172.92
  A 3.93 3.83 9.6 0 1 184.58 173.81
  Q 185.35 175.13 185.38 177.68
  Q 185.56 193.35 185.37 195.24
  A 1.05 1.03 -12.6 0 1 184.85 196.04
  C 181.08 198.23 178.70 201.00 179.99 205.78
  C 181.95 213.00 193.74 212.09 194.00 204.02
  Q 194.18 198.73 188.98 196.25
  A 0.75 0.74 -77.5 0 1 188.57 195.60
  L 188.19 172.14
  Q 185.42 168.19 183.37 166.12
  Q 180.48 163.21 177.44 160.44
  A 3.90 3.61 78.2 0 0 176.68 159.90
  Q 172.26 157.56 166.98 157.55
  Q 145.27 157.50 130.33 157.26
  C 127.03 157.21 122.21 159.35 118.37 159.92
  Q 114.18 160.55 112.72 160.99
  C 107.85 162.48 104.83 166.75 102.25 171.34
  Q 101.12 173.35 99.86 174.24
  Q 98.07 175.50 96.30 174.47
  Q 102.31 161.22 115.25 153.16
  Q 115.55 154.43 116.22 155.29
  A 1.06 1.05 61.8 0 0 117.38 155.65
  C 121.59 154.32 126.18 152.10 130.26 151.05
  Q 141.08 148.27 153.09 148.72
  Q 153.19 148.72 166.87 149.75
  C 174.90 150.36 181.20 154.30 187.82 156.95
  Q 193.51 159.22 197.06 164.75
  Q 201.02 170.91 203.61 174.80
  A 12.63 12.42 -68.0 0 1 205.44 179.21
  C 206.46 184.26 206.98 187.29 208.65 190.35
  A 0.21 0.21 0.0 0 0 209.04 190.28
  Q 209.45 188.04 210.85 186.30
  Z"
/>
<path fill="#062750" d="
  M 188.19 172.14
  Q 181.44 166.79 177.26 161.77
  A 2.38 2.37 -19.7 0 0 175.43 160.91
  L 129.13 160.91
  A 2.80 2.77 -67.3 0 0 127.16 161.73
  L 114.27 174.61
  A 0.90 0.87 -68.4 0 1 113.70 174.87
  C 109.47 175.08 106.41 175.94 107.11 181.18
  C 107.63 185.12 112.87 184.90 115.36 183.14
  A 1.09 1.04 -16.7 0 0 115.81 182.34
  L 116.11 178.44
  A 3.92 3.70 57.4 0 1 116.29 177.49
  Q 116.51 177.06 118.52 175.01
  Q 123.50 169.94 128.26 165.28
  A 4.86 4.84 22.9 0 1 131.64 163.91
  L 149.69 163.94
  Q 151.21 166.43 151.79 169.20
  A 0.66 0.64 84.3 0 0 152.41 169.72
  L 157.46 169.89
  L 135.53 170.13
  A 2.89 2.86 22.1 0 0 133.52 170.97
  L 114.10 190.39
  A 4.28 4.27 -22.6 0 0 112.86 193.40
  L 112.82 231.41
  Q 99.85 236.35 105.19 247.91
  Q 104.66 254.01 103.79 259.93
  Q 102.83 266.46 98.29 269.23
  Q 95.15 271.14 88.81 272.00
  L 88.57 269.07
  L 87.97 256.24
  L 87.83 245.00
  L 87.97 232.80
  L 88.23 222.80
  L 89.88 198.98
  L 91.84 187.77
  L 96.30 174.47
  Q 98.07 175.50 99.86 174.24
  Q 101.12 173.35 102.25 171.34
  C 104.83 166.75 107.85 162.48 112.72 160.99
  Q 114.18 160.55 118.37 159.92
  C 122.21 159.35 127.03 157.21 130.33 157.26
  Q 145.27 157.50 166.98 157.55
  Q 172.26 157.56 176.68 159.90
  A 3.90 3.61 78.2 0 1 177.44 160.44
  Q 180.48 163.21 183.37 166.12
  Q 185.42 168.19 188.19 172.14
  Z"
/>
<path fill="#cbb581" d="
  M 188.19 172.14
  L 188.57 195.60
  A 0.75 0.74 -77.5 0 0 188.98 196.25
  Q 194.18 198.73 194.00 204.02
  C 193.74 212.09 181.95 213.00 179.99 205.78
  C 178.70 201.00 181.08 198.23 184.85 196.04
  A 1.05 1.03 -12.6 0 0 185.37 195.24
  Q 185.56 193.35 185.38 177.68
  Q 185.35 175.13 184.58 173.81
  A 3.93 3.83 9.6 0 0 183.93 172.92
  L 176.14 165.12
  A 3.00 2.97 -9.0 0 0 175.29 164.51
  Q 174.16 163.97 171.25 163.96
  Q 160.49 163.92 149.69 163.94
  L 131.64 163.91
  A 4.86 4.84 22.9 0 0 128.26 165.28
  Q 123.50 169.94 118.52 175.01
  Q 116.51 177.06 116.29 177.49
  A 3.92 3.70 57.4 0 0 116.11 178.44
  L 115.81 182.34
  A 1.09 1.04 -16.7 0 1 115.36 183.14
  C 112.87 184.90 107.63 185.12 107.11 181.18
  C 106.41 175.94 109.47 175.08 113.70 174.87
  A 0.90 0.87 -68.4 0 0 114.27 174.61
  L 127.16 161.73
  A 2.80 2.77 -67.3 0 1 129.13 160.91
  L 175.43 160.91
  A 2.38 2.37 -19.7 0 1 177.26 161.77
  Q 181.44 166.79 188.19 172.14
  Z"
/>
<path fill="#cbb581" d="
  M 162.04 173.26
  Q 150.27 173.14 138.50 172.89
  Q 136.17 172.85 134.38 174.64
  Q 119.84 189.25 116.96 192.00
  A 2.85 2.82 -22.2 0 0 116.09 194.04
  L 116.09 230.20
  A 1.65 1.64 15.5 0 0 116.89 231.61
  C 123.47 235.52 127.37 241.44 122.29 248.83
  L 120.99 246.78
  C 122.51 239.31 118.13 235.41 112.82 231.41
  L 112.86 193.40
  A 4.28 4.27 -22.6 0 1 114.10 190.39
  L 133.52 170.97
  A 2.89 2.86 22.1 0 1 135.53 170.13
  L 157.46 169.89
  Q 160.68 169.68 163.21 169.99
  A 1.39 1.39 0.0 0 1 164.34 171.87
  Q 163.86 173.11 162.04 173.26
  Z"
/>
<path fill="#0e325c" d="
  M 162.04 173.26
  Q 158.86 175.00 154.84 175.01
  Q 138.84 175.03 137.86 175.09
  A 1.56 1.51 22.8 0 0 136.98 175.43
  Q 135.93 176.29 124.30 187.00
  C 118.14 192.67 117.74 195.81 117.68 203.25
  Q 117.62 211.15 117.38 228.43
  A 1.40 1.39 -79.5 0 0 118.30 229.77
  L 126.99 232.93
  A 0.91 0.90 28.5 0 0 128.01 232.63
  C 134.18 224.70 133.70 216.24 134.29 205.22
  C 134.65 198.52 138.44 193.16 140.22 186.88
  A 2.94 2.85 74.4 0 1 140.82 185.78
  Q 147.69 177.88 158.92 180.57
  A 0.61 0.61 0.0 0 1 159.39 181.11
  L 159.78 185.34
  C 156.07 182.18 147.73 182.29 144.02 185.42
  Q 139.81 189.84 138.46 196.93
  Q 137.56 202.91 137.43 209.39
  Q 137.00 231.04 137.21 252.71
  L 137.08 235.97
  A 0.42 0.42 0.0 0 0 136.26 235.82
  Q 134.43 240.66 134.28 246.77
  C 134.10 254.01 130.02 264.55 120.48 256.93
  Q 119.66 251.46 122.29 248.83
  C 127.37 241.44 123.47 235.52 116.89 231.61
  A 1.65 1.64 15.5 0 1 116.09 230.20
  L 116.09 194.04
  A 2.85 2.82 -22.2 0 1 116.96 192.00
  Q 119.84 189.25 134.38 174.64
  Q 136.17 172.85 138.50 172.89
  Q 150.27 173.14 162.04 173.26
  Z"
/>
<path fill="#011743" d="
  M 212.38 216.06
  Q 208.32 217.79 202.92 217.61
  Q 188.03 218.33 173.06 219.39
  C 170.45 219.57 167.24 220.27 166.84 216.66
  Q 174.59 215.46 181.09 215.25
  Q 195.79 214.76 212.38 216.06
  Z"
/>
<path fill="#c79e54" d="
  M 112.82 231.41
  C 118.13 235.41 122.51 239.31 120.99 246.78
  C 117.37 250.18 112.51 250.75 107.58 251.08
  L 105.19 247.91
  Q 99.85 236.35 112.82 231.41
  Z"
/>
<path fill="#011743" d="
  M 137.21 252.71
  Q 136.96 270.95 137.66 280.81
  Q 138.29 289.67 141.60 295.86
  Q 144.12 300.58 150.76 300.90
  Q 153.95 301.16 156.68 300.44
  C 163.02 298.78 165.44 292.80 166.00 286.75
  Q 166.92 276.67 166.85 266.52
  Q 166.95 264.98 167.71 263.88
  A 0.99 0.96 16.1 0 1 168.50 263.46
  L 174.16 263.37
  L 192.03 264.42
  L 197.36 264.87
  L 209.25 265.60
  Q 211.61 265.62 213.65 266.96
  L 213.57 277.53
  L 213.39 280.49
  Q 211.74 278.91 210.29 280.71
  C 208.68 282.71 208.68 290.55 208.60 292.92
  A 0.63 0.62 -83.9 0 1 207.87 293.51
  Q 202.13 292.56 197.78 291.97
  Q 193.27 291.36 192.43 295.01
  Q 191.60 291.01 192.36 288.11
  A 1.18 1.15 -5.2 0 1 193.01 287.35
  C 196.15 285.96 198.66 283.34 198.81 279.65
  Q 199.11 271.83 191.53 270.41
  Q 187.06 269.57 183.84 273.26
  Q 182.17 275.21 181.97 277.95
  Q 181.44 285.15 188.64 287.63
  L 188.45 294.75
  A 2.55 2.54 68.3 0 1 187.72 296.46
  L 170.92 313.26
  A 1.33 1.33 0.0 0 1 169.98 313.65
  L 141.00 313.65
  A 2.32 2.31 -22.0 0 1 139.34 312.95
  L 121.57 294.82
  A 4.12 4.11 -67.1 0 1 120.39 291.91
  L 120.48 256.93
  C 130.02 264.55 134.10 254.01 134.28 246.77
  Q 134.43 240.66 136.26 235.82
  A 0.42 0.42 0.0 0 1 137.08 235.97
  L 137.21 252.71
  Z"
/>
<path fill="#b3956d" d="
  M 120.99 246.78
  L 122.29 248.83
  Q 119.66 251.46 120.48 256.93
  L 120.39 291.91
  A 4.12 4.11 -67.1 0 0 121.57 294.82
  L 139.34 312.95
  A 2.32 2.31 -22.0 0 0 141.00 313.65
  L 169.98 313.65
  A 1.33 1.33 0.0 0 0 170.92 313.26
  L 187.72 296.46
  A 2.55 2.54 68.3 0 0 188.45 294.75
  L 188.64 287.63
  Q 192.41 285.48 193.66 282.90
  Q 196.10 277.87 192.88 273.76
  A 2.18 2.16 69.4 0 0 191.05 272.92
  L 183.84 273.26
  Q 187.06 269.57 191.53 270.41
  Q 199.11 271.83 198.81 279.65
  C 198.66 283.34 196.15 285.96 193.01 287.35
  A 1.18 1.15 -5.2 0 0 192.36 288.11
  Q 191.60 291.01 192.43 295.01
  Q 183.75 305.96 171.85 316.73
  L 138.68 316.79
  Q 129.63 307.77 119.96 298.03
  Q 117.93 295.99 116.95 293.91
  A 0.76 0.70 34.6 0 1 116.88 293.60
  L 116.88 252.81
  A 0.12 0.12 0.0 0 0 116.76 252.69
  L 111.17 252.69
  A 0.32 0.32 0.0 0 0 110.85 253.01
  L 110.85 298.08
  A 3.41 3.40 -66.5 0 0 111.76 300.40
  L 125.62 315.26
  A 1.05 1.05 0.0 0 1 125.57 316.74
  L 125.38 316.91
  A 1.81 1.80 -43.1 0 1 122.83 316.83
  Q 116.65 310.24 110.32 304.13
  C 108.76 302.63 107.63 300.81 107.63 298.77
  Q 107.64 274.96 107.58 251.08
  C 112.51 250.75 117.37 250.18 120.99 246.78
  Z"
/>
<path fill="#000940" d="
  M 105.19 247.91
  L 107.58 251.08
  Q 107.64 274.96 107.63 298.77
  C 107.63 300.81 108.76 302.63 110.32 304.13
  Q 116.65 310.24 122.83 316.83
  A 1.81 1.80 -43.1 0 0 125.38 316.91
  L 125.57 316.74
  A 1.05 1.05 0.0 0 0 125.62 315.26
  L 111.76 300.40
  A 3.41 3.40 -66.5 0 1 110.85 298.08
  L 110.85 253.01
  A 0.32 0.32 0.0 0 1 111.17 252.69
  L 116.76 252.69
  A 0.12 0.12 0.0 0 1 116.88 252.81
  L 116.88 293.60
  A 0.76 0.70 34.6 0 0 116.95 293.91
  Q 117.93 295.99 119.96 298.03
  Q 129.63 307.77 138.68 316.79
  Q 155.79 317.58 171.85 316.73
  Q 183.75 305.96 192.43 295.01
  Q 193.27 291.36 197.78 291.97
  Q 202.13 292.56 207.87 293.51
  A 0.63 0.62 -83.9 0 0 208.60 292.92
  C 208.68 290.55 208.68 282.71 210.29 280.71
  Q 211.74 278.91 213.39 280.49
  L 212.62 287.98
  Q 212.19 295.57 209.91 302.79
  Q 203.97 322.04 186.54 331.91
  Q 176.87 336.74 166.12 338.45
  L 151.68 339.20
  L 142.97 338.85
  C 136.01 338.16 131.05 336.47 124.98 334.78
  Q 122.63 334.13 116.68 330.91
  C 105.26 324.56 98.28 314.64 94.00 302.48
  L 91.40 292.64
  L 89.25 277.95
  L 88.81 272.00
  Q 95.15 271.14 98.29 269.23
  Q 102.83 266.46 103.79 259.93
  Q 104.66 254.01 105.19 247.91
  Z"
/>
<path fill="#c79e54" d="
  M 188.64 287.63
  Q 181.44 285.15 181.97 277.95
  Q 182.17 275.21 183.84 273.26
  L 191.05 272.92
  A 2.18 2.16 69.4 0 1 192.88 273.76
  Q 196.10 277.87 193.66 282.90
  Q 192.41 285.48 188.64 287.63
  Z"
/>
<path fill="#7a737a" d="
  M 171.85 316.73
  Q 155.79 317.58 138.68 316.79
  L 171.85 316.73
  Z"
/>
</g>
<!-- art H -->
<g transform="translate(-756.137,-230.558) scale(1.7681)">
<path fill="#154e76" d="
  M 702.68 181.78
  L 702.56 197.87
  L 702.40 215.67
  Q 698.41 205.98 698.92 198.95
  C 699.45 191.51 699.48 183.03 697.20 175.86
  Q 697.62 173.74 696.10 172.40
  Q 692.65 169.35 689.91 172.89
  Q 689.03 174.03 689.47 176.75
  A 1.77 1.75 62.9 0 1 688.99 178.26
  L 678.00 189.46
  Q 675.47 187.68 674.27 184.51
  Q 674.12 173.02 674.10 161.43
  C 674.09 159.17 676.76 158.38 676.90 156.29
  C 677.27 151.12 671.46 150.41 669.54 154.74
  Q 668.64 168.75 669.56 182.92
  Q 669.92 188.51 669.10 194.04
  C 668.20 200.19 663.70 202.76 658.10 204.08
  A 0.58 0.58 0.0 0 1 657.41 203.69
  Q 656.51 200.85 654.65 198.76
  L 654.65 185.52
  Q 654.46 169.43 654.69 153.31
  C 654.75 149.30 654.76 147.64 659.57 147.65
  Q 662.10 147.65 664.55 147.45
  L 677.46 147.37
  Q 688.10 147.57 698.75 147.71
  Q 700.34 147.73 701.62 148.64
  A 1.27 1.26 12.0 0 1 702.13 149.42
  Q 702.63 151.82 702.62 154.25
  Q 702.58 168.03 702.68 181.78
  Z"
/>
<path fill="#154e76" d="
  M 617.11 147.51
  Q 618.91 147.67 622.24 147.86
  Q 624.83 148.00 624.96 150.63
  Q 625.27 156.80 625.32 163.08
  L 625.30 185.22
  L 624.92 156.33
  A 0.16 0.16 0.0 0 0 624.62 156.26
  C 623.25 158.75 622.56 161.71 622.13 164.39
  A 0.78 0.78 0.0 0 1 620.59 164.34
  L 619.64 153.61
  A 0.80 0.78 6.7 0 0 619.08 152.92
  Q 613.13 151.13 607.94 153.58
  Q 605.85 151.35 603.39 152.33
  C 600.93 153.30 600.40 157.37 602.36 158.84
  Q 603.01 159.32 603.25 159.72
  A 2.79 2.46 32.6 0 1 603.64 161.08
  L 603.71 190.20
  L 603.40 193.39
  A 0.93 0.92 79.3 0 1 602.91 194.12
  Q 599.94 195.67 599.00 196.81
  Q 589.84 207.88 577.31 213.78
  A 0.92 0.90 79.0 0 0 576.80 214.55
  L 576.61 218.29
  L 576.62 207.47
  L 576.63 198.37
  L 576.54 161.30
  L 576.80 151.21
  Q 576.61 147.63 580.36 147.64
  C 583.64 147.65 588.25 147.34 592.21 147.41
  Q 604.10 147.63 617.11 147.51
  Z"
/>
<path fill="#0c395e" d="
  M 625.30 185.22
  L 625.37 215.22
  L 625.38 216.29
  Q 625.29 217.19 625.49 217.94
  A 0.69 0.68 80.7 0 0 626.17 218.44
  L 628.29 218.38
  L 639.81 218.33
  L 653.94 218.35
  A 0.62 0.62 0.0 0 0 654.56 217.73
  L 654.65 198.76
  Q 656.51 200.85 657.41 203.69
  A 0.58 0.58 0.0 0 0 658.10 204.08
  C 663.70 202.76 668.20 200.19 669.10 194.04
  Q 669.92 188.51 669.56 182.92
  Q 668.64 168.75 669.54 154.74
  Q 669.39 158.30 671.85 159.39
  A 1.20 1.18 12.4 0 1 672.55 160.47
  L 672.55 196.99
  A 3.39 3.38 68.4 0 1 671.49 199.45
  L 660.59 209.62
  A 0.40 0.39 43.2 0 0 660.61 210.22
  L 660.94 210.50
  A 0.70 0.69 -46.6 0 0 661.86 210.47
  L 673.25 199.85
  A 2.84 2.81 -21.6 0 0 674.14 197.82
  L 674.27 184.51
  Q 675.47 187.68 678.00 189.46
  Q 677.21 190.67 677.49 191.62
  A 0.21 0.20 59.1 0 0 677.83 191.71
  L 689.79 179.38
  A 1.69 1.67 -69.1 0 1 690.87 178.89
  C 691.60 178.83 692.26 179.52 693.29 179.33
  Q 696.11 178.81 697.20 175.86
  C 699.48 183.03 699.45 191.51 698.92 198.95
  Q 698.41 205.98 702.40 215.67
  L 702.57 259.76
  Q 702.17 259.09 702.22 258.13
  A 1.13 1.10 -59.1 0 0 702.07 257.50
  L 694.66 244.66
  A 1.30 1.28 72.5 0 0 693.45 244.02
  Q 691.51 244.17 690.28 243.56
  Q 691.82 243.97 693.44 243.77
  A 1.04 1.02 -81.1 0 0 694.25 243.17
  C 695.37 240.66 694.96 238.40 691.70 238.44
  A 1.75 1.67 30.4 0 0 691.02 238.60
  L 689.07 239.53
  A 3.69 3.57 -57.0 0 1 687.50 239.89
  L 676.79 239.90
  L 684.64 239.91
  A 0.11 0.10 -86.8 0 0 684.74 239.81
  L 684.77 239.49
  A 0.33 0.33 0.0 0 0 684.53 239.15
  L 665.51 233.87
  Q 666.29 233.76 666.85 233.32
  L 682.37 219.09
  A 2.29 2.27 -21.4 0 0 683.11 217.41
  L 683.11 207.25
  A 3.28 3.24 -21.7 0 1 684.15 204.87
  L 690.12 199.30
  A 0.88 0.87 31.7 0 1 690.98 199.10
  C 699.97 201.94 698.95 190.05 692.82 191.47
  C 688.63 192.45 690.55 195.18 689.45 197.28
  A 2.96 2.71 84.1 0 1 688.96 197.94
  L 682.48 204.29
  A 3.68 3.63 68.2 0 0 681.38 206.91
  L 681.38 216.09
  A 4.25 4.23 69.1 0 1 679.98 219.24
  L 667.91 230.19
  Q 662.56 228.43 658.51 225.00
  Q 661.80 224.40 662.20 220.85
  A 0.11 0.11 0.0 0 0 661.99 220.80
  Q 660.78 224.57 656.93 224.41
  Q 644.71 223.93 623.07 224.24
  A 0.28 0.28 0.0 0 0 623.01 224.80
  L 623.71 224.97
  L 616.82 224.97
  Q 613.72 223.18 609.59 224.07
  Q 608.78 224.25 609.29 225.06
  C 607.39 224.50 606.12 226.58 605.53 228.01
  L 605.61 160.98
  A 2.14 2.09 65.7 0 1 606.09 159.66
  L 607.76 157.63
  A 2.15 2.15 0.0 0 0 608.24 156.53
  Q 608.43 155.11 607.94 153.58
  Q 613.13 151.13 619.08 152.92
  A 0.80 0.78 6.7 0 1 619.64 153.61
  L 620.59 164.34
  A 0.78 0.78 0.0 0 0 622.13 164.39
  C 622.56 161.71 623.25 158.75 624.62 156.26
  A 0.16 0.16 0.0 0 1 624.92 156.33
  L 625.30 185.22
  Z
  M 662.85 217.16
  Q 671.51 209.33 674.95 206.20
  Q 676.38 204.90 678.19 201.37
  A 0.19 0.19 0.0 0 0 678.12 201.12
  L 677.83 200.92
  A 0.31 0.30 28.1 0 0 677.38 201.05
  Q 676.37 203.39 675.50 204.27
  Q 674.66 205.11 662.34 216.70
  A 0.09 0.09 0.0 0 0 662.34 216.83
  L 662.66 217.16
  A 0.14 0.13 -43.4 0 0 662.85 217.16
  Z"
/>
<path fill="#cbb581" d="
  M 607.94 153.58
  Q 608.43 155.11 608.24 156.53
  A 2.15 2.15 0.0 0 1 607.76 157.63
  L 606.09 159.66
  A 2.14 2.09 65.7 0 0 605.61 160.98
  L 605.53 228.01
  L 581.26 250.07
  Q 581.70 248.20 584.05 246.05
  Q 592.92 237.91 601.91 229.93
  Q 603.72 228.31 603.77 226.76
  Q 604.02 217.68 603.71 190.20
  L 603.64 161.08
  A 2.79 2.46 32.6 0 0 603.25 159.72
  Q 603.01 159.32 602.36 158.84
  C 600.40 157.37 600.93 153.30 603.39 152.33
  Q 605.85 151.35 607.94 153.58
  Z"
/>
<path fill="#cbb581" d="
  M 674.27 184.51
  L 674.14 197.82
  A 2.84 2.81 -21.6 0 1 673.25 199.85
  L 661.86 210.47
  A 0.70 0.69 -46.6 0 1 660.94 210.50
  L 660.61 210.22
  A 0.40 0.39 43.2 0 1 660.59 209.62
  L 671.49 199.45
  A 3.39 3.38 68.4 0 0 672.55 196.99
  L 672.55 160.47
  A 1.20 1.18 12.4 0 0 671.85 159.39
  Q 669.39 158.30 669.54 154.74
  C 671.46 150.41 677.27 151.12 676.90 156.29
  C 676.76 158.38 674.09 159.17 674.10 161.43
  Q 674.12 173.02 674.27 184.51
  Z"
/>
<path fill="#cbb581" d="
  M 697.20 175.86
  Q 696.11 178.81 693.29 179.33
  C 692.26 179.52 691.60 178.83 690.87 178.89
  A 1.69 1.67 -69.1 0 0 689.79 179.38
  L 677.83 191.71
  A 0.21 0.20 59.1 0 1 677.49 191.62
  Q 677.21 190.67 678.00 189.46
  L 688.99 178.26
  A 1.77 1.75 62.9 0 0 689.47 176.75
  Q 689.03 174.03 689.91 172.89
  Q 692.65 169.35 696.10 172.40
  Q 697.62 173.74 697.20 175.86
  Z"
/>
<path fill="#0c395e" d="
  M 603.71 190.20
  Q 604.02 217.68 603.77 226.76
  Q 603.72 228.31 601.91 229.93
  Q 592.92 237.91 584.05 246.05
  Q 581.70 248.20 581.26 250.07
  Q 578.08 250.07 576.75 248.79
  L 576.63 244.47
  L 576.58 233.17
  L 576.63 222.23
  L 576.61 218.29
  L 576.80 214.55
  A 0.92 0.90 79.0 0 1 577.31 213.78
  Q 589.84 207.88 599.00 196.81
  Q 599.94 195.67 602.91 194.12
  A 0.93 0.92 79.3 0 0 603.40 193.39
  L 603.71 190.20
  Z"
/>
<path fill="#cbb581" d="
  M 666.85 233.32
  Q 666.07 232.43 666.22 231.52
  L 667.91 230.19
  L 679.98 219.24
  A 4.25 4.23 69.1 0 0 681.38 216.09
  L 681.38 206.91
  A 3.68 3.63 68.2 0 1 682.48 204.29
  L 688.96 197.94
  A 2.96 2.71 84.1 0 0 689.45 197.28
  C 690.55 195.18 688.63 192.45 692.82 191.47
  C 698.95 190.05 699.97 201.94 690.98 199.10
  A 0.88 0.87 31.7 0 0 690.12 199.30
  L 684.15 204.87
  A 3.28 3.24 -21.7 0 0 683.11 207.25
  L 683.11 217.41
  A 2.29 2.27 -21.4 0 1 682.37 219.09
  L 666.85 233.32
  Z"
/>
<path fill="#c1bb9e" d="
  M 662.85 217.16
  A 0.14 0.13 -43.4 0 1 662.66 217.16
  L 662.34 216.83
  A 0.09 0.09 0.0 0 1 662.34 216.70
  Q 674.66 205.11 675.50 204.27
  Q 676.37 203.39 677.38 201.05
  A 0.31 0.30 28.1 0 1 677.83 200.92
  L 678.12 201.12
  A 0.19 0.19 0.0 0 1 678.19 201.37
  Q 676.38 204.90 674.95 206.20
  Q 671.51 209.33 662.85 217.16
  Z"
/>
<path fill="#7a737a" d="
  M 658.51 225.00
  L 623.71 224.97
  L 623.01 224.80
  A 0.28 0.28 0.0 0 1 623.07 224.24
  Q 644.71 223.93 656.93 224.41
  Q 660.78 224.57 661.99 220.80
  A 0.11 0.11 0.0 0 1 662.20 220.85
  Q 661.80 224.40 658.51 225.00
  Z"
/>
<path fill="#011743" d="
  M 609.29 225.06
  L 616.82 224.97
  L 623.71 224.97
  L 658.51 225.00
  Q 662.56 228.43 667.91 230.19
  L 666.22 231.52
  Q 664.56 232.07 662.75 232.07
  Q 637.97 232.06 616.53 232.14
  A 3.75 3.75 0.0 0 0 613.97 233.15
  L 580.36 264.51
  A 0.64 0.63 47.2 0 0 580.33 265.41
  L 580.61 265.72
  A 0.70 0.70 0.0 0 0 581.60 265.75
  L 614.78 234.79
  A 2.12 2.12 0.0 0 1 616.20 234.22
  L 665.51 233.87
  L 684.53 239.15
  A 0.33 0.33 0.0 0 1 684.77 239.49
  L 684.74 239.81
  A 0.11 0.10 -86.8 0 1 684.64 239.91
  L 676.79 239.90
  Q 647.70 240.08 625.50 239.75
  Q 623.15 239.71 621.21 240.30
  A 2.17 2.09 -73.8 0 0 620.39 240.77
  L 604.09 256.06
  Q 597.29 259.18 594.78 266.08
  A 3.05 3.03 -35.3 0 0 594.60 267.11
  C 594.43 279.20 593.81 286.89 594.45 297.83
  Q 595.19 310.65 593.93 324.41
  C 593.73 326.66 594.74 328.25 594.08 330.58
  A 0.66 0.66 0.0 0 1 593.52 331.06
  Q 584.74 332.14 576.78 330.33
  L 576.72 325.90
  L 576.72 314.32
  L 576.68 301.96
  L 576.74 292.05
  L 576.74 280.26
  L 576.74 267.27
  L 576.66 254.18
  L 576.75 248.79
  Q 578.08 250.07 581.26 250.07
  L 605.53 228.01
  C 606.12 226.58 607.39 224.50 609.29 225.06
  Z"
/>
<path fill="#b3956d" d="
  M 616.82 224.97
  L 609.29 225.06
  Q 608.78 224.25 609.59 224.07
  Q 613.72 223.18 616.82 224.97
  Z"
/>
<path fill="#aaa298" d="
  M 666.22 231.52
  Q 666.07 232.43 666.85 233.32
  Q 666.29 233.76 665.51 233.87
  L 616.20 234.22
  A 2.12 2.12 0.0 0 0 614.78 234.79
  L 581.60 265.75
  A 0.70 0.70 0.0 0 1 580.61 265.72
  L 580.33 265.41
  A 0.64 0.63 47.2 0 1 580.36 264.51
  L 613.97 233.15
  A 3.75 3.75 0.0 0 1 616.53 232.14
  Q 637.97 232.06 662.75 232.07
  Q 664.56 232.07 666.22 231.52
  Z"
/>
<path fill="#aaa298" d="
  M 690.28 243.56
  Q 689.55 242.02 688.00 241.98
  Q 681.06 241.84 667.19 241.93
  L 623.10 242.25
  A 3.11 3.08 -66.4 0 0 621.03 243.07
  L 603.96 258.96
  L 599.59 263.01
  A 2.42 2.38 69.0 0 0 598.82 264.78
  L 598.82 330.47
  A 0.85 0.84 85.2 0 1 598.12 331.31
  L 597.59 331.41
  A 0.68 0.68 0.0 0 1 596.79 330.74
  L 596.79 264.61
  A 3.85 3.84 -21.7 0 1 598.00 261.81
  L 604.09 256.06
  L 620.39 240.77
  A 2.17 2.09 -73.8 0 1 621.21 240.30
  Q 623.15 239.71 625.50 239.75
  Q 647.70 240.08 676.79 239.90
  L 687.50 239.89
  A 3.69 3.57 -57.0 0 0 689.07 239.53
  L 691.02 238.60
  A 1.75 1.67 30.4 0 1 691.70 238.44
  C 694.96 238.40 695.37 240.66 694.25 243.17
  A 1.04 1.02 -81.1 0 1 693.44 243.77
  Q 691.82 243.97 690.28 243.56
  Z"
/>
<path fill="#011743" d="
  M 667.19 241.93
  L 669.48 247.86
  L 645.30 248.11
  A 0.44 0.44 0.0 0 0 644.87 248.53
  L 644.85 248.85
  A 0.54 0.54 0.0 0 0 645.39 249.41
  L 665.46 249.41
  A 1.56 1.55 0.0 0 1 667.02 250.96
  L 667.02 253.51
  A 1.62 1.59 -23.2 0 1 666.56 254.63
  Q 664.66 256.55 665.33 259.72
  Q 661.08 260.81 655.51 260.47
  Q 654.13 260.39 654.06 261.92
  L 639.96 261.99
  L 628.47 261.86
  L 625.30 262.19
  Q 624.75 261.66 624.01 262.03
  A 0.76 0.74 -10.1 0 0 623.60 262.60
  Q 622.52 270.25 622.88 277.68
  A 2.14 2.12 59.8 0 1 622.55 278.95
  Q 616.42 288.79 606.01 293.81
  L 605.99 266.33
  A 3.55 3.54 68.6 0 1 607.13 263.70
  L 620.63 251.10
  A 0.48 0.48 0.0 0 0 620.65 250.42
  L 620.41 250.16
  A 0.49 0.49 0.0 0 0 619.71 250.14
  L 608.03 261.23
  Q 606.45 259.23 603.96 258.96
  L 621.03 243.07
  A 3.11 3.08 -66.4 0 1 623.10 242.25
  L 667.19 241.93
  Z"
/>
<path fill="#062750" d="
  M 690.28 243.56
  Q 691.51 244.17 693.45 244.02
  A 1.30 1.28 72.5 0 1 694.66 244.66
  L 702.07 257.50
  A 1.13 1.10 -59.1 0 1 702.22 258.13
  Q 702.17 259.09 702.57 259.76
  L 702.52 278.99
  L 699.77 274.21
  A 1.12 1.12 0.0 0 0 698.05 273.95
  Q 697.14 274.80 696.43 276.55
  Q 693.57 283.56 690.38 289.09
  C 686.66 295.52 683.42 300.39 676.24 301.78
  Q 673.63 299.45 671.17 296.84
  C 670.13 295.75 668.90 294.88 668.89 293.25
  Q 668.83 279.48 668.90 262.25
  Q 668.90 260.38 670.35 259.73
  A 0.89 0.87 -8.5 0 0 670.85 259.07
  Q 671.35 255.90 669.38 254.69
  A 1.19 1.19 0.0 0 1 668.82 253.68
  L 668.82 250.28
  A 0.81 0.81 0.0 0 1 669.63 249.47
  L 687.95 249.45
  A 2.72 2.71 -32.2 0 1 689.11 249.71
  C 690.04 250.13 690.28 250.87 691.59 251.04
  Q 692.66 251.18 693.88 250.78
  A 1.03 1.02 -1.2 0 0 694.54 250.10
  Q 695.20 247.80 694.04 246.65
  A 2.55 2.54 -51.2 0 0 690.13 247.08
  Q 689.87 247.48 689.35 247.74
  A 1.53 1.46 -57.0 0 1 688.68 247.90
  L 669.48 247.86
  L 667.19 241.93
  Q 681.06 241.84 688.00 241.98
  Q 689.55 242.02 690.28 243.56
  Z"
/>
<path fill="#aaa298" d="
  M 676.24 301.78
  L 681.22 306.63
  L 680.01 308.39
  L 667.56 295.98
  A 2.35 2.34 22.4 0 1 666.86 294.31
  Q 666.91 277.70 666.87 261.00
  Q 666.87 259.96 665.33 259.72
  Q 664.66 256.55 666.56 254.63
  A 1.62 1.59 -23.2 0 0 667.02 253.51
  L 667.02 250.96
  A 1.56 1.55 0.0 0 0 665.46 249.41
  L 645.39 249.41
  A 0.54 0.54 0.0 0 1 644.85 248.85
  L 644.87 248.53
  A 0.44 0.44 0.0 0 1 645.30 248.11
  L 669.48 247.86
  L 688.68 247.90
  A 1.53 1.46 -57.0 0 0 689.35 247.74
  Q 689.87 247.48 690.13 247.08
  A 2.55 2.54 -51.2 0 1 694.04 246.65
  Q 695.20 247.80 694.54 250.10
  A 1.03 1.02 -1.2 0 1 693.88 250.78
  Q 692.66 251.18 691.59 251.04
  C 690.28 250.87 690.04 250.13 689.11 249.71
  A 2.72 2.71 -32.2 0 0 687.95 249.45
  L 669.63 249.47
  A 0.81 0.81 0.0 0 0 668.82 250.28
  L 668.82 253.68
  A 1.19 1.19 0.0 0 0 669.38 254.69
  Q 671.35 255.90 670.85 259.07
  A 0.89 0.87 -8.5 0 1 670.35 259.73
  Q 668.90 260.38 668.90 262.25
  Q 668.83 279.48 668.89 293.25
  C 668.90 294.88 670.13 295.75 671.17 296.84
  Q 673.63 299.45 676.24 301.78
  Z"
/>
<path fill="#7a737a" d="
  M 606.01 293.81
  L 605.71 331.02
  A 0.50 0.49 -84.5 0 1 605.13 331.50
  L 604.79 331.44
  A 0.44 0.44 0.0 0 1 604.43 331.01
  L 604.43 265.93
  A 1.90 1.89 -24.3 0 1 604.91 264.67
  L 608.03 261.23
  L 619.71 250.14
  A 0.49 0.49 0.0 0 1 620.41 250.16
  L 620.65 250.42
  A 0.48 0.48 0.0 0 1 620.63 251.10
  L 607.13 263.70
  A 3.55 3.54 68.6 0 0 605.99 266.33
  L 606.01 293.81
  Z"
/>
<path fill="#000c34" d="
  M 604.09 256.06
  L 598.00 261.81
  A 3.85 3.84 -21.7 0 0 596.79 264.61
  L 596.79 330.74
  A 0.68 0.68 0.0 0 0 597.59 331.41
  L 598.12 331.31
  A 0.85 0.84 85.2 0 0 598.82 330.47
  L 598.82 264.78
  A 2.42 2.38 69.0 0 1 599.59 263.01
  L 603.96 258.96
  Q 606.45 259.23 608.03 261.23
  L 604.91 264.67
  A 1.90 1.89 -24.3 0 0 604.43 265.93
  L 604.43 331.01
  A 0.44 0.44 0.0 0 0 604.79 331.44
  L 605.13 331.50
  A 0.50 0.49 -84.5 0 0 605.71 331.02
  L 606.01 293.81
  Q 616.42 288.79 622.55 278.95
  A 2.14 2.12 59.8 0 0 622.88 277.68
  Q 622.52 270.25 623.60 262.60
  A 0.76 0.74 -10.1 0 1 624.01 262.03
  Q 624.75 261.66 625.30 262.19
  L 625.34 284.03
  L 625.09 334.26
  A 1.93 1.92 -0.2 0 1 623.18 336.17
  L 612.11 336.25
  L 609.22 336.16
  L 595.21 336.07
  Q 587.72 336.13 580.25 336.15
  Q 577.33 336.16 576.82 333.71
  Q 576.53 332.29 576.78 330.33
  Q 584.74 332.14 593.52 331.06
  A 0.66 0.66 0.0 0 0 594.08 330.58
  C 594.74 328.25 593.73 326.66 593.93 324.41
  Q 595.19 310.65 594.45 297.83
  C 593.81 286.89 594.43 279.20 594.60 267.11
  A 3.05 3.03 -35.3 0 1 594.78 266.08
  Q 597.29 259.18 604.09 256.06
  Z"
/>
<path fill="#000940" d="
  M 665.33 259.72
  Q 666.87 259.96 666.87 261.00
  Q 666.91 277.70 666.86 294.31
  A 2.35 2.34 22.4 0 0 667.56 295.98
  L 680.01 308.39
  L 680.11 312.41
  A 1.41 1.40 -56.0 0 0 680.18 312.78
  C 682.25 318.35 689.17 316.22 688.89 311.04
  C 688.64 306.20 684.07 307.30 681.22 306.63
  L 676.24 301.78
  C 683.42 300.39 686.66 295.52 690.38 289.09
  Q 693.57 283.56 696.43 276.55
  Q 697.14 274.80 698.05 273.95
  A 1.12 1.12 0.0 0 1 699.77 274.21
  L 702.52 278.99
  L 702.44 302.72
  L 702.48 314.56
  L 702.47 325.49
  L 702.59 333.41
  A 2.59 2.58 89.5 0 1 700.02 336.04
  L 657.21 336.18
  Q 654.51 336.19 654.51 332.75
  Q 654.55 297.75 654.51 262.75
  Q 654.51 262.14 654.06 261.92
  Q 654.13 260.39 655.51 260.47
  Q 661.08 260.81 665.33 259.72
  Z"
/>
<path fill="#b3956d" d="
  M 680.01 308.39
  L 681.22 306.63
  C 684.07 307.30 688.64 306.20 688.89 311.04
  C 689.17 316.22 682.25 318.35 680.18 312.78
  A 1.41 1.40 -56.0 0 1 680.11 312.41
  L 680.01 308.39
  Z"
/>
</g>
<!-- art family -->
<g transform="translate(-443.567,61.014) scale(0.9724)">
<path fill="#432700" d="
  M 780.82 354.06
  Q 784.25 356.44 784.92 361.11
  Q 785.13 367.11 782.65 373.00
  Q 777.67 386.44 766.34 394.85
  A 0.48 0.47 51.8 0 0 766.26 395.54
  L 770.92 401.11
  A 1.94 1.93 -28.5 0 0 772.96 401.71
  Q 775.66 400.89 777.71 399.08
  Q 778.40 398.47 779.94 394.24
  Q 783.18 385.35 792.68 381.40
  L 802.96 380.34
  Q 807.03 377.86 810.77 380.73
  Q 812.25 381.86 812.64 383.87
  C 810.79 391.81 806.12 402.52 809.66 409.41
  A 1.97 1.96 62.2 0 0 812.34 410.25
  Q 816.87 407.81 817.34 403.72
  Q 819.27 409.01 821.66 411.70
  Q 822.70 412.88 827.12 416.09
  Q 824.89 416.85 820.70 416.77
  Q 816.73 416.69 817.30 412.85
  A 0.31 0.31 0.0 0 0 816.76 412.61
  Q 812.14 417.91 805.09 416.85
  C 801.14 416.26 799.53 414.13 798.67 410.55
  A 0.29 0.29 0.0 0 0 798.14 410.47
  C 796.19 413.85 794.74 416.56 790.36 416.88
  C 786.19 417.18 782.78 416.82 780.52 412.95
  Q 778.19 408.95 778.65 405.09
  A 0.43 0.43 0.0 0 0 778.10 404.62
  Q 774.84 405.60 773.51 407.02
  A 0.94 0.94 0.0 0 0 773.30 407.92
  C 773.75 409.39 774.86 411.49 775.10 413.70
  Q 775.95 421.46 774.26 429.01
  Q 773.57 432.10 770.88 436.18
  Q 767.91 440.69 762.23 440.45
  C 755.00 440.14 753.19 432.90 753.11 427.05
  L 753.03 419.02
  L 753.83 408.26
  L 754.29 401.70
  A 1.29 1.27 -57.3 0 0 754.15 401.04
  L 752.20 397.26
  Q 752.02 392.78 755.64 392.00
  A 0.79 0.78 -88.7 0 0 756.24 391.42
  L 760.27 374.50
  L 762.73 368.28
  L 768.22 359.17
  Q 773.53 352.46 780.82 354.06
  Z
  M 769.00 386.54
  L 776.52 375.14
  A 1.79 1.76 68.5 0 0 776.75 374.60
  Q 777.60 371.13 778.88 367.80
  A 4.58 4.48 59.1 0 0 779.19 366.51
  Q 779.38 364.72 779.00 363.03
  A 0.95 0.95 0.0 0 0 777.43 362.53
  Q 775.88 363.93 774.97 366.00
  Q 770.74 375.58 768.50 386.33
  A 0.28 0.28 0.0 0 0 769.00 386.54
  Z
  M 794.37 409.18
  Q 796.40 405.51 797.12 402.28
  Q 797.78 399.34 798.37 396.52
  L 799.94 386.10
  A 0.88 0.87 88.4 0 0 798.90 385.11
  Q 797.04 385.49 795.33 386.63
  C 791.24 389.33 788.74 398.81 788.88 402.76
  Q 789.24 412.49 794.37 409.18
  Z
  M 764.93 407.28
  Q 764.17 409.44 763.87 412.32
  Q 763.55 415.38 762.54 426.00
  Q 762.23 429.24 763.62 432.33
  A 1.02 1.02 0.0 0 0 765.26 432.64
  Q 767.05 430.89 767.87 427.85
  Q 770.72 417.22 766.21 407.22
  A 0.69 0.69 0.0 0 0 764.93 407.28
  Z"
/>
<path fill="#432700" d="
  M 742.54 359.75
  Q 738.67 366.54 736.97 373.51
  L 735.05 380.42
  Q 734.10 385.28 733.07 390.09
  C 731.78 396.08 731.29 401.40 731.91 406.97
  C 732.12 408.90 733.60 412.34 736.27 410.15
  Q 739.32 407.77 741.03 404.40
  A 1.09 1.08 28.8 0 1 742.56 403.96
  Q 743.43 404.49 743.56 405.75
  Q 740.30 414.87 732.17 417.07
  L 727.42 416.71
  A 3.45 3.39 -29.3 0 1 726.17 416.37
  Q 722.47 414.58 721.65 410.23
  A 0.38 0.37 53.7 0 0 720.95 410.12
  C 719.35 413.19 717.45 416.05 714.00 416.71
  Q 705.80 418.29 702.74 411.66
  A 0.55 0.55 0.0 0 0 701.79 411.59
  Q 696.96 418.79 687.64 416.54
  C 684.21 415.72 683.07 412.23 682.44 408.44
  Q 682.94 400.23 684.12 392.02
  Q 684.34 390.45 684.28 390.24
  A 2.06 2.06 0.0 0 0 680.75 389.51
  C 676.98 393.92 675.61 399.62 673.87 406.62
  Q 673.34 408.73 673.54 414.75
  Q 673.57 415.65 672.47 416.34
  C 669.55 417.70 663.93 417.92 663.12 413.59
  A 0.45 0.45 0.0 0 0 662.34 413.38
  Q 659.06 417.17 653.62 417.01
  Q 646.57 416.97 645.00 410.40
  A 0.50 0.50 0.0 0 0 644.02 410.41
  Q 643.03 414.74 638.74 416.42
  Q 626.85 419.18 625.15 407.52
  Q 624.51 401.67 625.57 397.48
  Q 629.01 386.01 638.81 381.55
  Q 640.43 380.81 644.54 380.99
  L 647.23 381.10
  A 1.15 1.12 28.0 0 0 647.95 380.89
  Q 649.97 379.40 652.28 379.40
  C 654.80 379.58 660.01 381.20 659.02 384.50
  Q 657.34 390.12 655.91 395.77
  C 654.88 398.99 652.89 410.15 658.00 410.66
  A 1.49 1.49 0.0 0 0 659.13 410.31
  L 662.37 407.60
  A 1.94 1.91 72.8 0 0 663.05 406.29
  Q 664.08 393.92 667.20 380.05
  A 2.59 2.58 -5.3 0 1 668.70 378.25
  Q 671.04 377.24 674.01 377.70
  C 678.30 378.53 679.47 381.37 677.39 385.04
  Q 676.29 386.98 675.91 389.42
  A 0.30 0.30 0.0 0 0 676.44 389.66
  Q 677.40 388.50 679.02 386.26
  C 681.73 382.51 686.30 380.13 690.72 380.76
  Q 693.49 381.16 694.47 382.55
  Q 696.88 385.99 696.00 390.53
  C 694.37 399.01 692.49 403.93 694.02 409.43
  A 1.81 1.81 0.0 0 0 696.58 410.56
  Q 698.88 409.40 700.19 407.71
  A 2.92 2.84 67.9 0 0 700.78 406.25
  Q 701.07 403.41 701.32 400.94
  Q 702.40 389.96 711.29 383.55
  Q 716.36 379.90 722.58 380.93
  A 0.71 0.71 0.0 0 0 723.39 380.38
  Q 725.57 370.24 728.15 361.64
  C 729.00 358.82 730.24 354.96 733.45 354.40
  Q 741.94 352.93 742.54 359.75
  Z
  M 645.43 385.33
  C 637.24 386.23 633.49 402.55 636.36 408.82
  A 2.26 2.26 0.0 0 0 639.81 409.66
  Q 642.64 407.44 643.64 402.12
  Q 644.18 399.27 646.16 386.09
  A 0.67 0.66 1.3 0 0 645.43 385.33
  Z
  M 713.64 393.29
  C 712.21 398.08 710.93 405.04 713.25 409.64
  A 1.69 1.69 0.0 0 0 715.96 410.07
  C 719.27 406.73 720.72 400.96 721.35 396.43
  L 722.55 386.17
  A 0.42 0.41 -89.4 0 0 722.11 385.71
  C 717.67 386.03 715.41 389.48 713.64 393.29
  Z"
/>
<path fill="#513708" d="
  M 918.72 355.56
  Q 920.73 357.88 921.23 361.22
  Q 921.90 366.48 920.11 371.97
  Q 917.61 381.63 910.54 390.28
  Q 907.49 394.01 905.74 394.88
  A 1.06 1.05 80.6 0 0 905.16 395.70
  Q 904.62 400.32 904.84 404.44
  C 905.08 408.83 908.48 413.06 913.03 408.67
  C 917.04 405.74 917.85 400.36 918.32 395.49
  L 920.37 382.22
  A 0.96 0.96 0.0 0 1 920.94 381.48
  C 925.98 379.34 933.16 381.09 931.36 388.26
  C 930.00 393.63 925.49 407.44 929.31 409.91
  C 931.15 411.10 933.01 407.81 933.48 406.47
  Q 937.25 395.45 938.86 382.88
  Q 940.17 380.07 943.02 380.20
  C 946.29 380.29 949.32 380.02 950.63 383.93
  L 947.69 396.03
  L 944.49 411.59
  A 0.24 0.24 0.0 0 0 944.87 411.83
  C 948.52 409.08 952.17 406.97 954.43 402.71
  Q 955.03 402.26 955.48 402.46
  Q 955.89 402.63 956.02 403.39
  Q 956.31 405.11 956.03 405.98
  Q 955.42 407.68 954.85 408.23
  Q 950.62 413.26 944.26 416.79
  Q 943.83 416.96 943.19 417.81
  A 2.01 1.98 -21.9 0 0 942.79 418.73
  C 941.37 427.76 936.17 441.88 925.63 442.68
  C 918.19 443.24 913.75 438.16 915.13 430.73
  Q 916.87 426.20 921.53 422.55
  Q 926.38 419.06 932.28 417.07
  A 0.92 0.90 0.5 0 0 932.85 416.52
  L 934.07 413.18
  A 0.33 0.33 0.0 0 0 933.49 412.87
  C 929.80 417.82 922.07 418.43 918.92 412.79
  Q 918.21 411.52 917.58 410.56
  A 0.51 0.50 46.7 0 0 916.75 410.53
  Q 910.28 419.23 900.34 416.22
  Q 897.26 415.28 895.42 410.57
  A 0.51 0.51 0.0 0 0 894.50 410.50
  Q 893.24 412.67 891.06 414.45
  C 886.06 418.53 877.39 418.51 875.13 411.27
  A 0.49 0.49 0.0 0 0 874.19 411.29
  Q 874.01 411.95 873.28 412.82
  Q 869.15 417.74 862.43 416.76
  C 850.99 416.85 855.10 398.94 856.38 392.67
  Q 856.69 391.16 855.94 389.56
  A 1.23 1.22 -37.8 0 0 853.88 389.30
  Q 850.05 393.97 848.35 399.53
  Q 846.27 406.99 846.41 414.76
  A 1.45 1.45 0.0 0 1 845.45 416.15
  Q 841.56 417.55 837.96 416.24
  A 3.17 3.16 -81.4 0 1 835.88 413.41
  C 835.54 405.92 837.52 396.58 838.39 391.58
  Q 838.52 390.86 838.21 389.72
  A 1.78 1.76 -22.0 0 0 835.64 388.64
  C 832.50 390.36 829.65 397.99 828.71 401.00
  Q 827.51 404.87 827.12 416.09
  Q 822.70 412.88 821.66 411.70
  Q 819.27 409.01 817.34 403.72
  Q 817.24 392.02 820.77 379.75
  A 2.01 2.00 2.6 0 1 822.33 378.33
  L 826.30 377.57
  C 832.35 377.99 832.31 381.61 830.65 385.93
  Q 829.62 388.63 829.48 389.80
  A 0.20 0.20 0.0 0 0 829.85 389.94
  C 830.68 388.72 832.03 386.00 833.38 384.71
  Q 836.95 381.27 840.70 380.67
  C 846.21 379.77 849.94 382.09 849.54 388.17
  A 0.24 0.24 0.0 0 0 849.96 388.34
  C 853.44 384.07 856.30 380.73 862.19 380.41
  Q 867.67 381.09 868.05 386.00
  Q 868.49 391.63 867.20 397.30
  C 866.34 399.77 863.42 412.01 869.50 410.61
  A 0.88 0.81 15.2 0 0 869.91 410.40
  L 873.32 407.22
  A 1.58 1.56 71.8 0 0 873.81 406.23
  Q 874.51 399.48 876.02 390.25
  C 876.38 388.02 877.20 384.87 877.86 383.31
  Q 879.41 379.65 884.27 380.13
  C 886.86 380.13 890.54 381.64 889.35 384.89
  Q 887.28 390.61 886.32 396.54
  C 885.69 399.27 884.18 408.40 886.37 410.35
  A 2.24 2.02 -40.3 0 0 888.98 410.43
  C 894.57 406.70 893.71 401.98 894.05 396.04
  C 894.34 392.87 894.51 389.85 895.28 386.71
  Q 896.70 380.98 897.92 375.19
  Q 898.89 370.61 903.55 361.56
  Q 905.32 357.89 908.45 355.55
  Q 913.80 352.47 918.72 355.56
  Z
  M 905.92 386.94
  A 0.52 0.51 68.8 0 0 906.84 387.35
  Q 913.75 377.52 915.33 365.01
  Q 915.54 363.33 914.98 362.09
  A 0.79 0.79 0.0 0 0 913.64 361.92
  Q 911.63 364.46 910.71 367.69
  Q 908.24 376.43 905.92 386.94
  Z
  M 921.79 434.61
  Q 924.98 437.18 928.70 431.50
  Q 930.65 428.53 932.12 422.26
  Q 932.14 422.14 931.97 422.01
  Q 931.81 421.87 931.70 421.92
  Q 925.87 424.67 923.38 427.20
  Q 918.60 432.03 921.79 434.61
  Z"
/>
<path fill="#513708" d="
  M 884.44 376.23
  Q 881.12 375.75 879.66 372.57
  C 878.09 366.22 884.10 363.42 889.58 364.28
  A 2.72 2.65 -24.5 0 1 890.53 364.62
  Q 895.22 367.42 892.96 372.54
  A 2.71 2.61 -11.8 0 1 892.40 373.36
  Q 889.28 376.56 884.44 376.23
  Z"
/>
</g>
</svg>
